<svg class="cps-animal" xmlns="http://www.w3.org/2000/svg" viewBox="0 0 960 600" ><path fill="#D99C3C" d="m639 372-10-22-58 11-102 7-93-1-51 73-55 18-47 8-90 94-23-2-4-22 48-47 20-38 75-27 21-137-46-74-1-1-24-97V78l-25-47 49 6 8 82 25 83 19 29 44 39h-1 1l111-18 118-50 37-7v-1l77-8 38-15 14 7 44-6 7-22 13 31 48 33-1 17 24 27-2 20-6 3-19 12-18-13v-1h-1l-47-6-15-10-27 48 70 5 9 10 34 7 28 35v15l-15 6-16 6v-27l-23-10 5-13-22 53-10 7-4-7-9-15 6-41z" data-fill="#D99C3C" style="transition: all 0.2s cubic-bezier(0, 0, 0, 1) 0s; transform: none; filter: brightness(1.5);"></path><path fill="#E7C049" d="m714 311 70 5-118 34z" data-fill="#E7C049" style="transition: all 0.2s cubic-bezier(0, 0, 0, 1) 0s; transform: none; filter: brightness(1);"></path><path fill="#FFE463" d="m784 316 24 25-67-13z" data-fill="#FFE463" style="transition: all 0.2s cubic-bezier(0, 0, 0, 1) 0s; transform: none; filter: brightness(1);"></path><path fill="#6A491B" d="m788 337-149 35 27-22 75-22z" data-fill="#6A491B" style="transition: all 0.2s cubic-bezier(0, 0, 0, 1) 0s; transform: none; filter: brightness(1);"></path><path fill="#E7B93F" d="m808 341-24 57 4-61z" data-fill="#E7B93F" style="transition: all 0.2s cubic-bezier(0, 0, 0, 1) 0s; transform: none; filter: brightness(1);"></path><path fill="#9A6E2B" d="m767 342-6 41 27-28v-18z" data-fill="#9A6E2B" style="transition: all 0.2s cubic-bezier(0, 0, 0, 1) 0s; transform: none; filter: brightness(1);"></path><path fill="#D99C3C" d="m761 383 9 15h14l4-43z" data-fill="#D99C3C" style="transition: all 0.2s cubic-bezier(0, 0, 0, 1) 0s; transform: none; filter: brightness(1);"></path><path fill="#5C401B" d="m784 398-10 7-4-7z" data-fill="#5C401B" style="transition: all 0.2s cubic-bezier(0, 0, 0, 1) 0s; transform: none; filter: brightness(1);"></path><path fill="#6A491B" d="m801 358 23 10v27l16-6 3-12-19-33-16-3-7 17Z" data-fill="#6A491B" style="transition: all 0.2s cubic-bezier(0, 0, 0, 1) 0s; transform: none; filter: brightness(1);"></path><path fill="#F7D258" d="m792 326 35 7 16 44-19-33-16-3z" data-fill="#F7D258" style="transition: all 0.2s cubic-bezier(0, 0, 0, 1) 0s; transform: none; filter: brightness(1);"></path><path fill="#D79D40" d="m827 333 28 35v15l-15 6 3-12z" data-fill="#D79D40" style="transition: all 0.2s cubic-bezier(0, 0, 0, 1) 0s; transform: none; filter: brightness(1);"></path><path fill="#6A491B" d="m644 329-22 4 17 39z" data-fill="#6A491B" style="transition: all 0.2s cubic-bezier(0, 0, 0, 1) 0s; transform: none; filter: brightness(1);"></path><path fill="#D99C3C" d="m738 235 3 28-27 48-21-48z" data-fill="#D99C3C" style="transition: all 0.2s cubic-bezier(0, 0, 0, 1) 0s; transform: none; filter: brightness(1);"></path><path fill="#815F24" d="m693 263-41 6 62 42z" data-fill="#815F24" style="transition: all 0.2s cubic-bezier(0, 0, 0, 1) 0s; transform: none; filter: brightness(1);"></path><path fill="#9E7531" d="m652 269-13 103 75-61z" data-fill="#9E7531" style="transition: all 0.2s cubic-bezier(0, 0, 0, 1) 0s; transform: none; filter: brightness(1);"></path><path fill="#9E702C" d="m693 263-88-44 47 50 41-6Z" data-fill="#9E702C" style="transition: all 0.2s cubic-bezier(0, 0, 0, 1) 0s; transform: none; filter: brightness(1);"></path><path fill="#6D5027" d="m605 219-13 44 60 6z" data-fill="#6D5027" style="transition: all 0.2s cubic-bezier(0, 0, 0, 1) 0s; transform: none; filter: brightness(1);"></path><path fill="#7A5732" d="m592 263 30 70 30-64z" data-fill="#7A5732" style="transition: all 0.2s cubic-bezier(0, 0, 0, 1) 0s; transform: none; filter: brightness(1);"></path><path fill="#51340E" d="m652 269-30 64 22-4 8-60Z" data-fill="#51340E" style="transition: all 0.2s cubic-bezier(0, 0, 0, 1) 0s; transform: none; filter: brightness(1);"></path><path fill="#000" d="m592 263-14 13v-16z" data-fill="#000" style="transition: all 0.2s cubic-bezier(0, 0, 0, 1) 0s; transform: none; filter: brightness(1);"></path><path fill="#D99C3C" d="m578 260-24 66 21-6 47 13-30-70-14 13z" data-fill="#D99C3C" style="transition: all 0.2s cubic-bezier(0, 0, 0, 1) 0s; transform: none; filter: brightness(1);"></path><path fill="#765629" d="m578 260-27-14-27-5z" data-fill="#765629" style="transition: all 0.2s cubic-bezier(0, 0, 0, 1) 0s; transform: none; filter: brightness(1);"></path><path d="m539 265-5 11-4-11z" fill="rgba(255,255,255,0)" style="transition: all 0.2s cubic-bezier(0, 0, 0, 1) 0s; transform: none; filter: brightness(1);"></path><path fill="#614520" d="m605 219-81 22 54 19 14 3z" data-fill="#614520" style="transition: all 0.2s cubic-bezier(0, 0, 0, 1) 0s; transform: none; filter: brightness(1);"></path><path fill="#000" d="m605 219-18 5 12 17z" data-fill="#000" style="transition: all 0.2s cubic-bezier(0, 0, 0, 1) 0s; transform: none; filter: brightness(1);"></path><path fill="#6A491B" d="m605 219 71-8 17 52z" data-fill="#6A491B" style="transition: all 0.2s cubic-bezier(0, 0, 0, 1) 0s; transform: none; filter: brightness(1);"></path><path fill="#000" d="m622 217-4 7-13-5 17-2Z" data-fill="#000" style="transition: all 0.2s cubic-bezier(0, 0, 0, 1) 0s; transform: none; filter: brightness(1);"></path><path fill="#75572D" d="m662 186-57 33 71-8z" data-fill="#75572D" style="transition: all 0.2s cubic-bezier(0, 0, 0, 1) 0s; transform: none; filter: brightness(1);"></path><path fill="#000" d="m668 194-19-1 13-7z" data-fill="#000" style="transition: all 0.2s cubic-bezier(0, 0, 0, 1) 0s; transform: none; filter: brightness(1);"></path><path fill="#C6963F" d="m662 186-77 8 20 25z" data-fill="#C6963F" style="transition: all 0.2s cubic-bezier(0, 0, 0, 1) 0s; transform: none; filter: brightness(1);"></path><path fill="#8B6428" d="m585 194-61 47 81-22z" data-fill="#8B6428" style="transition: all 0.2s cubic-bezier(0, 0, 0, 1) 0s; transform: none; filter: brightness(1);"></path><path fill="#000" d="m594 204-16-3 7-7 9 10Z" data-fill="#000" style="transition: all 0.2s cubic-bezier(0, 0, 0, 1) 0s; transform: none; filter: brightness(1);"></path><path fill="#73552D" d="m586 194-38 8-24 39z" data-fill="#73552D" style="transition: all 0.2s cubic-bezier(0, 0, 0, 1) 0s; transform: none; filter: brightness(1);"></path><path fill="#4E361E" d="m548 202-118 50 94-11z" data-fill="#4E361E" style="transition: all 0.2s cubic-bezier(0, 0, 0, 1) 0s; transform: none; filter: brightness(1.5);"></path><path fill="#634512" d="m524 241-89 68-5-57z" data-fill="#634512" style="transition: all 0.2s cubic-bezier(0, 0, 0, 1) 0s; transform: none; filter: brightness(1.5);"></path><path fill="#7D542A" d="m435 309-116-39 111-18z" data-fill="#7D542A" style="transition: all 0.2s cubic-bezier(0, 0, 0, 1) 0s; transform: none; filter: brightness(1);"></path><path fill="#D99C3C" d="m435 309 9 41 50-6-59-35Z" data-fill="#D99C3C" style="transition: all 0.2s cubic-bezier(0, 0, 0, 1) 0s; transform: none; filter: brightness(1);"></path><path fill="#7F5C21" d="m554 326-60 18-59-35 89-68 54 19z" data-fill="#7F5C21" style="transition: all 0.2s cubic-bezier(0, 0, 0, 1) 0s; transform: none; filter: brightness(1.5);"></path><path fill="#000" d="m545 248-21-7-11 8z" data-fill="#000" style="transition: all 0.2s cubic-bezier(0, 0, 0, 1) 0s; transform: none; filter: brightness(1);"></path><path fill="#D9AB31" d="m622 333-51 28 58-11-7-17Z" data-fill="#D9AB31" style="transition: all 0.2s cubic-bezier(0, 0, 0, 1) 0s; transform: none; filter: brightness(1);"></path><path fill="#D99C3C" d="m622 333-51 28 4-41z" data-fill="#D99C3C" style="transition: all 0.2s cubic-bezier(0, 0, 0, 1) 0s; transform: none; filter: brightness(1);"></path><path fill="#D9AB31" d="m575 320-4 41-17-35z" data-fill="#D9AB31" style="transition: all 0.2s cubic-bezier(0, 0, 0, 1) 0s; transform: none; filter: brightness(1);"></path><path fill="#BE7E20" d="m571 361-77-17 60-18z" data-fill="#BE7E20" style="transition: all 0.2s cubic-bezier(0, 0, 0, 1) 0s; transform: none; filter: brightness(1);"></path><path fill="#905D29" d="m444 350-68 17-57-97z" data-fill="#905D29" style="transition: all 0.2s cubic-bezier(0, 0, 0, 1) 0s; transform: none; filter: brightness(1);"></path><path fill="#9C6E25" d="m444 350-9-41-116-39z" data-fill="#9C6E25" style="transition: all 0.2s cubic-bezier(0, 0, 0, 1) 0s; transform: none; filter: brightness(1);"></path><path fill="#9A712C" d="m319 270-49 15 84 44z" data-fill="#9A712C" style="transition: all 0.2s cubic-bezier(0, 0, 0, 1) 0s; transform: none; filter: brightness(1);"></path><path fill="#D99C3C" d="m376 367-106 76 55-3z" data-fill="#D99C3C" style="transition: all 0.2s cubic-bezier(0, 0, 0, 1) 0s; transform: none; filter: brightness(1);"></path><path fill="#E7B93F" d="m376 367-22-38-84 114z" data-fill="#E7B93F" style="transition: all 0.2s cubic-bezier(0, 0, 0, 1) 0s; transform: none; filter: brightness(1);"></path><path fill="#B57D37" d="m354 329-72-3-12 117z" data-fill="#B57D37" style="transition: all 0.2s cubic-bezier(0, 0, 0, 1) 0s; transform: none; filter: brightness(1);"></path><path fill="#6A491B" d="m270 285 84 44-72-3z" data-fill="#6A491B" style="transition: all 0.2s cubic-bezier(0, 0, 0, 1) 0s; transform: none; filter: brightness(1);"></path><path fill="#7F5C21" d="m270 285-21 139 33-98z" data-fill="#7F5C21" style="transition: all 0.2s cubic-bezier(0, 0, 0, 1) 0s; transform: none; filter: brightness(1);"></path><path fill="#6A491B" d="m249 424 21 19 12-117zM249 424l-75 27 43 7 32-34Z" data-fill="#6A491B" style="transition: all 0.2s cubic-bezier(0, 0, 0, 1) 0s; transform: none; filter: brightness(1);"></path><path fill="#7A5732" d="m270 443-47 23-6-8 32-34 21 19Zm55-3-55 18v-15l55-3Z" data-fill="#7A5732" style="transition: all 0.2s cubic-bezier(0, 0, 0, 1) 0s; transform: none; filter: brightness(1);"></path><path fill="#9E702C" d="m270 458-47 8 47-23z" data-fill="#9E702C" style="transition: all 0.2s cubic-bezier(0, 0, 0, 1) 0s; transform: none; filter: brightness(1);"></path><path fill="#905D29" d="m217 458-63 31 20-38 43 7Z" data-fill="#905D29" style="transition: all 0.2s cubic-bezier(0, 0, 0, 1) 0s; transform: none; filter: brightness(1);"></path><path fill="#D99C3C" d="m223 466-90 94 12-31 72-71z" data-fill="#D99C3C" style="transition: all 0.2s cubic-bezier(0, 0, 0, 1) 0s; transform: none; filter: brightness(1);"></path><path fill="#B2802D" d="m217 458-63 31-9 40z" data-fill="#B2802D" style="transition: all 0.2s cubic-bezier(0, 0, 0, 1) 0s; transform: none; filter: brightness(1);"></path><path fill="#905D29" d="m154 489-48 47 39-7 9-40Z" data-fill="#905D29" style="transition: all 0.2s cubic-bezier(0, 0, 0, 1) 0s; transform: none; filter: brightness(1);"></path><path fill="#6A491B" d="m145 529-35 29-4-22z" data-fill="#6A491B" style="transition: all 0.2s cubic-bezier(0, 0, 0, 1) 0s; transform: none; filter: brightness(1);"></path><path fill="#9E702C" d="m145 529-12 31-23-2z" data-fill="#9E702C" style="transition: all 0.2s cubic-bezier(0, 0, 0, 1) 0s; transform: none; filter: brightness(1);"></path><path fill="#D99C3C" d="m571 361-102 7 22-25 80 18Z" data-fill="#D99C3C" style="transition: all 0.2s cubic-bezier(0, 0, 0, 1) 0s; transform: none; filter: brightness(1);"></path><path fill="#E1BD3F" d="m491 344-22 24-93-1 68-17z" data-fill="#E1BD3F" style="transition: all 0.2s cubic-bezier(0, 0, 0, 1) 0s; transform: none; filter: brightness(1);"></path><path fill="#000" d="m445 251-13 19-2-18zM484 271l1 14-8-9zM433 293l-8 12 10 4zM384 260l-7 16-10-13 17-3ZM338 267l-2 9-17-6z" data-fill="#000" style="transition: all 0.2s cubic-bezier(0, 0, 0, 1) 0s; transform: none; filter: brightness(1);"></path><path fill="#F7D258" d="m662 186 38-15 14 7z" data-fill="#F7D258" style="transition: all 0.2s cubic-bezier(0, 0, 0, 1) 0s; transform: none; filter: brightness(1);"></path><path fill="#C6963F" d="m714 178-38 33-14-25 52-8Z" data-fill="#C6963F" style="transition: all 0.2s cubic-bezier(0, 0, 0, 1) 0s; transform: none; filter: brightness(1);"></path><path fill="#D19F4B" d="m754 184-78 27 37-33z" data-fill="#D19F4B" style="transition: all 0.2s cubic-bezier(0, 0, 0, 1) 0s; transform: none; filter: brightness(1);"></path><path fill="#5D4123" d="m765 150-27 85 36-36z" data-fill="#5D4123" style="transition: all 0.2s cubic-bezier(0, 0, 0, 1) 0s; transform: none; filter: brightness(1);"></path><path fill="#CF9440" d="m758 172-45 6 41 6z" data-fill="#CF9440" style="transition: all 0.2s cubic-bezier(0, 0, 0, 1) 0s; transform: none; filter: brightness(1);"></path><path fill="#976B26" d="m754 184-54 18 38 33z" data-fill="#976B26" style="transition: all 0.2s cubic-bezier(0, 0, 0, 1) 0s; transform: none; filter: brightness(1);"></path><path fill="#5C401B" d="m700 202-7 61 45-28z" data-fill="#5C401B" style="transition: all 0.2s cubic-bezier(0, 0, 0, 1) 0s; transform: none; filter: brightness(1);"></path><path fill="#906324" d="m700 202-7 61-17-52z" data-fill="#906324" style="transition: all 0.2s cubic-bezier(0, 0, 0, 1) 0s; transform: none; filter: brightness(1);"></path><path fill="#000" d="m700 202-18 7 18 10zM670 200l-8 13 14-2z" data-fill="#000" style="transition: all 0.2s cubic-bezier(0, 0, 0, 1) 0s; transform: none; filter: brightness(1);"></path><path fill="#292A1E" d="M700 180v10l13-12z" data-fill="#292A1E" style="transition: all 0.2s cubic-bezier(0, 0, 0, 1) 0s; transform: none; filter: brightness(1);"></path><path fill="#FFE463" d="m774 199 4-18-13-31z" data-fill="#FFE463" style="transition: all 0.2s cubic-bezier(0, 0, 0, 1) 0s; transform: none; filter: brightness(1);"></path><path fill="#976B26" d="m804 279-34-29-14 23 48 6Z" data-fill="#976B26" style="transition: all 0.2s cubic-bezier(0, 0, 0, 1) 0s; transform: none; filter: brightness(1);"></path><path fill="#6A491B" d="m738 235 32 15-14 23z" data-fill="#6A491B" style="transition: all 0.2s cubic-bezier(0, 0, 0, 1) 0s; transform: none; filter: brightness(1);"></path><path fill="#8B6428" d="m738 235 3 28 15 10z" data-fill="#8B6428" style="transition: all 0.2s cubic-bezier(0, 0, 0, 1) 0s; transform: none; filter: brightness(1);"></path><path fill="#E1BD3F" d="m782 231-12 19-32-15 44-4Z" data-fill="#E1BD3F" style="transition: all 0.2s cubic-bezier(0, 0, 0, 1) 0s; transform: none; filter: brightness(1);"></path><path fill="#D99C3C" d="m319 270-44-39-5 54z" data-fill="#D99C3C" style="transition: all 0.2s cubic-bezier(0, 0, 0, 1) 0s; transform: none; filter: brightness(1);"></path><path fill="#634512" d="m270 285-47-74 52 20z" data-fill="#634512" style="transition: all 0.2s cubic-bezier(0, 0, 0, 1) 0s; transform: none; filter: brightness(1);"></path><path fill="#D99C3C" d="m223 212 33-10 19 29z" data-fill="#D99C3C" style="transition: all 0.2s cubic-bezier(0, 0, 0, 1) 0s; transform: none; filter: brightness(1);"></path><path fill="#634512" d="m223 212 8-93 25 83z" data-fill="#634512" style="transition: all 0.2s cubic-bezier(0, 0, 0, 1) 0s; transform: none; filter: brightness(1);"></path><path fill="#9C6E25" d="m223 212-24-97 32 4z" data-fill="#9C6E25" style="transition: all 0.2s cubic-bezier(0, 0, 0, 1) 0s; transform: none; filter: brightness(1);"></path><path fill="#7F5C21" d="m231 119-8-82-24 78 32 4Z" data-fill="#7F5C21" style="transition: all 0.2s cubic-bezier(0, 0, 0, 1) 0s; transform: none; filter: brightness(1);"></path><path fill="#D99C3C" d="m174 31 38 41 11-35-49-6Z" data-fill="#D99C3C" style="transition: all 0.2s cubic-bezier(0, 0, 0, 1) 0s; transform: none; filter: brightness(1);"></path><path fill="#4E361E" d="m174 31 25 47 13-6z" data-fill="#4E361E" style="transition: all 0.2s cubic-bezier(0, 0, 0, 1) 0s; transform: none; filter: brightness(1);"></path><path fill="#684A20" d="M199 78v37l13-43z" data-fill="#684A20" style="transition: all 0.2s cubic-bezier(0, 0, 0, 1) 0s; transform: none; filter: brightness(1);"></path><path fill="#160200" d="m825 231 24 27-8 10-16-37Z" data-fill="#160200" style="transition: all 0.2s cubic-bezier(0, 0, 0, 1) 0s; transform: none; filter: brightness(1);"></path><path fill="#895B1F" d="m849 258-2 20-6 3v-13zM841 281l-37-1 18 13 19-12Z" data-fill="#895B1F" style="transition: all 0.2s cubic-bezier(0, 0, 0, 1) 0s; transform: none; filter: brightness(1);"></path><path fill="#E1BD3F" d="M782 231h43l-21 49z" data-fill="#E1BD3F" style="transition: all 0.2s cubic-bezier(0, 0, 0, 1) 0s; transform: none; filter: brightness(1);"></path><path fill="#CF923F" d="m825 231-21 49 37 1v-13l-16-37Z" data-fill="#CF923F" style="transition: all 0.2s cubic-bezier(0, 0, 0, 1) 0s; transform: none; filter: brightness(1);"></path><path fill="#302221" d="m825 231 1-17-5 1z" data-fill="#302221" style="transition: all 0.2s cubic-bezier(0, 0, 0, 1) 0s; transform: none; filter: brightness(1);"></path><path fill="#D9AB31" d="m826 214-48-33 4 50h43l-4-16z" data-fill="#D9AB31" style="transition: all 0.2s cubic-bezier(0, 0, 0, 1) 0s; transform: none; filter: brightness(1);"></path><path fill="#9A712C" d="m774 199 8 32-44 4z" data-fill="#9A712C" style="transition: all 0.2s cubic-bezier(0, 0, 0, 1) 0s; transform: none; filter: brightness(1);"></path><path fill="#F1BC0C" d="m778 181-4 18 8 32z" data-fill="#F1BC0C" style="transition: all 0.2s cubic-bezier(0, 0, 0, 1) 0s; transform: none; filter: brightness(1);"></path><path fill="#CF923F" d="m782 231-12 19 34 29z" data-fill="#CF923F" style="transition: all 0.2s cubic-bezier(0, 0, 0, 1) 0s; transform: none; filter: brightness(1);"></path><path fill="#000" d="m485 339 9 5 10-3zM268 221l-3 7 10 3zM344 342l16-1-6-12-10 13ZM281 340l17-14h-16z" data-fill="#000" style="transition: all 0.2s cubic-bezier(0, 0, 0, 1) 0s; transform: none; filter: brightness(1);"></path></svg>