<svg class="cps-animal cps-breath" xmlns="http://www.w3.org/2000/svg" viewBox="0 0 960 600" width="400" height="400"><path fill="#936B49" d="M237 54h13l130 153 80 96 10 12 7 1 18-19-5-11 12-11 21 2-3-13 22-9 5-18 21-5v-19l23-6 75 47-65-56 4-22h18l57 72-45-75 9-26 20 4 28 91-14-98 22-23 19 12-9 99 23-119 17-8 16 11 5-15 15-5 6 9 8 25-47 112-26 33-83 73-34 59 6 36-12 19 23-13 15-6 12 2 19 8 2 3 17 4 1 3 11 4 5 9v9l-4 6v-5l-10-3-20-3-24 5-24 7-23 12-24-4-16-20h-1l-58 32-39 5-4 1-35 10-28 10-5 3-5-6 5 3 5-3v-2l4-2-8 1-1 1h-1l-20 3-34 16-16 13-3-20-11 7-39-10 113-52-120 40-20-17 30-7-20-11 22-4-19-14 104-13v-10l-15-3-3-8-17 3-1-9-17-2-3-14-16-5 2-21-22-3v-21l-18-3v-17l-16-11 9-16-22-14 13-15-20-13 10-21-25-19 13-13-13-19 15-10-23-6-13-27 27-11-24-10-7-40 28-7-11-8V58l25-3 18 16z" data-fill="#936B49" style="transition: all 0.2s cubic-bezier(0, 0, 0, 1) 0s; transform: none; filter: brightness(1);"></path><path fill="#D2B59A" d="m610 407-30-19 6 26zM580 388l-54-6 19 21z" data-fill="#D2B59A" style="transition: all 0.2s cubic-bezier(0, 0, 0, 1) 0s; transform: none; filter: brightness(1);"></path><path fill="#EAD8C6" d="m580 388-36 16 42 10z" data-fill="#EAD8C6" style="transition: all 0.2s cubic-bezier(0, 0, 0, 1) 0s; transform: none; filter: brightness(1);"></path><path fill="#C3A17C" d="m586 414-13 18-29-28z" data-fill="#C3A17C" style="transition: all 0.2s cubic-bezier(0, 0, 0, 1) 0s; transform: none; filter: brightness(1);"></path><path fill="#EAD8C6" d="m610 407 6 36-30-29z" data-fill="#EAD8C6" style="transition: all 0.2s cubic-bezier(0, 0, 0, 1) 0s; transform: none; filter: brightness(1);"></path><path fill="#292125" d="m564 480 16 20 24 4z" data-fill="#292125" style="transition: all 0.2s cubic-bezier(0, 0, 0, 1) 0s; transform: none; filter: brightness(1);"></path><path fill="#735739" d="m627 492-23 12-18-11z" data-fill="#735739" style="transition: all 0.2s cubic-bezier(0, 0, 0, 1) 0s; transform: none; filter: brightness(1);"></path><path fill="#46474D" d="m654 445-12-2-15 6z" data-fill="#46474D" style="transition: all 0.2s cubic-bezier(0, 0, 0, 1) 0s; transform: none; filter: brightness(1);"></path><path fill="#8B8C97" d="m654 454-10 2-17-7 27-4z" data-fill="#8B8C97" style="transition: all 0.2s cubic-bezier(0, 0, 0, 1) 0s; transform: none; filter: brightness(1);"></path><path fill="#A69E9B" d="m644 456-8 13-9-20z" data-fill="#A69E9B" style="transition: all 0.2s cubic-bezier(0, 0, 0, 1) 0s; transform: none; filter: brightness(1);"></path><path fill="#968981" d="m636 469-9 23v-43z" data-fill="#968981" style="transition: all 0.2s cubic-bezier(0, 0, 0, 1) 0s; transform: none; filter: brightness(1);"></path><path fill="#7F6F5C" d="m627 449-23 13 23 10z" data-fill="#7F6F5C" style="transition: all 0.2s cubic-bezier(0, 0, 0, 1) 0s; transform: none; filter: brightness(1);"></path><path fill="#72573C" d="m604 462-9 10h32z" data-fill="#72573C" style="transition: all 0.2s cubic-bezier(0, 0, 0, 1) 0s; transform: none; filter: brightness(1);"></path><path fill="#D2B59A" d="m616 443-12 19-18-48z" data-fill="#D2B59A" style="transition: all 0.2s cubic-bezier(0, 0, 0, 1) 0s; transform: none; filter: brightness(1);"></path><path fill="#675540" d="m604 462-9 10-22-40z" data-fill="#675540" style="transition: all 0.2s cubic-bezier(0, 0, 0, 1) 0s; transform: none; filter: brightness(1);"></path><path fill="#AB886C" d="m604 462-18-48-13 18z" data-fill="#AB886C" style="transition: all 0.2s cubic-bezier(0, 0, 0, 1) 0s; transform: none; filter: brightness(1);"></path><path fill="#8C674A" d="m627 492-32-20h32z" data-fill="#8C674A" style="transition: all 0.2s cubic-bezier(0, 0, 0, 1) 0s; transform: none; filter: brightness(1);"></path><path fill="#AF8D6A" d="m595 472-9 21 41-1z" data-fill="#AF8D6A" style="transition: all 0.2s cubic-bezier(0, 0, 0, 1) 0s; transform: none; filter: brightness(1);"></path><path fill="#593E37" d="m595 472-32 8 23 13z" data-fill="#593E37" style="transition: all 0.2s cubic-bezier(0, 0, 0, 1) 0s; transform: none; filter: brightness(1);"></path><path fill="#6D573E" d="m563 480 10-48 22 40z" data-fill="#6D573E" style="transition: all 0.2s cubic-bezier(0, 0, 0, 1) 0s; transform: none; filter: brightness(1);"></path><path fill="#8F6948" d="m563 480-58 32 6-40z" data-fill="#8F6948" style="transition: all 0.2s cubic-bezier(0, 0, 0, 1) 0s; transform: none; filter: brightness(1);"></path><path fill="#5B4039" d="m573 432-62-7 52 55z" data-fill="#5B4039" style="transition: all 0.2s cubic-bezier(0, 0, 0, 1) 0s; transform: none; filter: brightness(1);"></path><path fill="#8F644B" d="m511 425-72 13 72 34z" data-fill="#8F644B" style="transition: all 0.2s cubic-bezier(0, 0, 0, 1) 0s; transform: none; filter: brightness(1);"></path><path fill="#685242" d="M511 425v47l52 8z" data-fill="#685242" style="transition: all 0.2s cubic-bezier(0, 0, 0, 1) 0s; transform: none; filter: brightness(1);"></path><path fill="#9F8673" d="m439 438-62 24v20z" data-fill="#9F8673" style="transition: all 0.2s cubic-bezier(0, 0, 0, 1) 0s; transform: none; filter: brightness(1);"></path><path fill="#A8896D" d="m377 482 22 25 40-69z" data-fill="#A8896D" style="transition: all 0.2s cubic-bezier(0, 0, 0, 1) 0s; transform: none; filter: brightness(1);"></path><path fill="#806354" d="m399 507 25 21 42-11z" data-fill="#806354" style="transition: all 0.2s cubic-bezier(0, 0, 0, 1) 0s; transform: none; filter: brightness(1);"></path><path fill="#45372C" d="m466 517 39-5 6-40z" data-fill="#45372C" style="transition: all 0.2s cubic-bezier(0, 0, 0, 1) 0s; transform: none; filter: brightness(1);"></path><path fill="#936B49" d="m511 472-112 35 40-69z" data-fill="#936B49" style="transition: all 0.2s cubic-bezier(0, 0, 0, 1) 0s; transform: none; filter: brightness(1);"></path><path fill="#312022" d="m511 472-112 35 67 10z" data-fill="#312022" style="transition: all 0.2s cubic-bezier(0, 0, 0, 1) 0s; transform: none; filter: brightness(1);"></path><path fill="#4F5E69" d="M654 454h8l5 3-5 6-6 1-3-2-2-4z" data-fill="#4F5E69" style="transition: all 0.2s cubic-bezier(0, 0, 0, 1) 0s; transform: none; filter: brightness(1);"></path><path fill="#000" d="m656 456-1 2 1 4h3l2-2-1-4z" data-fill="#000" style="transition: all 0.2s cubic-bezier(0, 0, 0, 1) 0s; transform: none; filter: brightness(1);"></path><path fill="#464850" d="m667 457 7 5-11 8v-8z" data-fill="#464850" style="transition: all 0.2s cubic-bezier(0, 0, 0, 1) 0s; transform: none; filter: brightness(1);"></path><path fill="#383943" d="m663 470-8-1 1-5 7-2z" data-fill="#383943" style="transition: all 0.2s cubic-bezier(0, 0, 0, 1) 0s; transform: none; filter: brightness(1);"></path><path fill="#36373F" d="m655 469-8-5-3-8 10-2-3 4 2 4 3 2z" data-fill="#36373F" style="transition: all 0.2s cubic-bezier(0, 0, 0, 1) 0s; transform: none; filter: brightness(1);"></path><path fill="#A69E9B" d="m654 445 19 8-11 1h-8z" data-fill="#A69E9B" style="transition: all 0.2s cubic-bezier(0, 0, 0, 1) 0s; transform: none; filter: brightness(1);"></path><path fill="#4E4C53" d="m673 453 9 15-20-14z" data-fill="#4E4C53" style="transition: all 0.2s cubic-bezier(0, 0, 0, 1) 0s; transform: none; filter: brightness(1);"></path><path fill="#2D2E36" d="m692 460 1 3-11 5z" data-fill="#2D2E36" style="transition: all 0.2s cubic-bezier(0, 0, 0, 1) 0s; transform: none; filter: brightness(1);"></path><path fill="#292A38" d="m692 460-17-4 7 12z" data-fill="#292A38" style="transition: all 0.2s cubic-bezier(0, 0, 0, 1) 0s; transform: none; filter: brightness(1);"></path><path fill="#322319" d="m693 463 11 4-7 4z" data-fill="#322319" style="transition: all 0.2s cubic-bezier(0, 0, 0, 1) 0s; transform: none; filter: brightness(1);"></path><path fill="#222121" d="m693 463-11 5 15 3z" data-fill="#222121" style="transition: all 0.2s cubic-bezier(0, 0, 0, 1) 0s; transform: none; filter: brightness(1);"></path><path fill="#2D2E36" d="m704 467 5 9-12-5z" data-fill="#2D2E36" style="transition: all 0.2s cubic-bezier(0, 0, 0, 1) 0s; transform: none; filter: brightness(1);"></path><path fill="#222121" d="M709 476v9l-12-14z" data-fill="#222121" style="transition: all 0.2s cubic-bezier(0, 0, 0, 1) 0s; transform: none; filter: brightness(1);"></path><path fill="#000" d="m709 485-4 6v-11z" data-fill="#000" style="transition: all 0.2s cubic-bezier(0, 0, 0, 1) 0s; transform: none; filter: brightness(1);"></path><path fill="#161B22" d="M705 480v6l-10-3z" data-fill="#161B22" style="transition: all 0.2s cubic-bezier(0, 0, 0, 1) 0s; transform: none; filter: brightness(1);"></path><path fill="#3C3C3C" d="m695 483-20-3v-10z" data-fill="#3C3C3C" style="transition: all 0.2s cubic-bezier(0, 0, 0, 1) 0s; transform: none; filter: brightness(1);"></path><path fill="#313336" d="m675 470 30 10-10 3z" data-fill="#313336" style="transition: all 0.2s cubic-bezier(0, 0, 0, 1) 0s; transform: none; filter: brightness(1);"></path><path fill="#1E1D16" d="m682 468 23 12-8-9z" data-fill="#1E1D16" style="transition: all 0.2s cubic-bezier(0, 0, 0, 1) 0s; transform: none; filter: brightness(1);"></path><path fill="#8D8981" d="m682 468-7 2 30 10z" data-fill="#8D8981" style="transition: all 0.2s cubic-bezier(0, 0, 0, 1) 0s; transform: none; filter: brightness(1);"></path><path fill="#64636A" d="M675 470h-12l10-8 9 6z" data-fill="#64636A" style="transition: all 0.2s cubic-bezier(0, 0, 0, 1) 0s; transform: none; filter: brightness(1);"></path><path fill="#222023" d="M675 470v10l-24 5z" data-fill="#222023" style="transition: all 0.2s cubic-bezier(0, 0, 0, 1) 0s; transform: none; filter: brightness(1);"></path><path fill="#44372A" d="M675 470h-12l-12 15z" data-fill="#44372A" style="transition: all 0.2s cubic-bezier(0, 0, 0, 1) 0s; transform: none; filter: brightness(1);"></path><path fill="#636368" d="m647 464 4 21 12-15-8-1z" data-fill="#636368" style="transition: all 0.2s cubic-bezier(0, 0, 0, 1) 0s; transform: none; filter: brightness(1);"></path><path fill="#292C37" d="m636 469 11-5-3-8" data-fill="#292C37" style="transition: all 0.2s cubic-bezier(0, 0, 0, 1) 0s; transform: none; filter: brightness(1);"></path><path fill="#474749" d="m636 469 15 16-4-21z" data-fill="#474749" style="transition: all 0.2s cubic-bezier(0, 0, 0, 1) 0s; transform: none; filter: brightness(1);"></path><path fill="#44362B" d="m636 469-9 23 24-7z" data-fill="#44362B" style="transition: all 0.2s cubic-bezier(0, 0, 0, 1) 0s; transform: none; filter: brightness(1);"></path><path fill="#D2B59A" d="m526 382-66-79-5 68z" data-fill="#D2B59A" style="transition: all 0.2s cubic-bezier(0, 0, 0, 1) 0s; transform: none; filter: brightness(1);"></path><path fill="#6F5640" d="m460 303-80-97 75 165z" data-fill="#6F5640" style="transition: all 0.2s cubic-bezier(0, 0, 0, 1) 0s; transform: none; filter: brightness(1);"></path><path fill="#EAD8C6" d="m455 371 56 54 15-43z" data-fill="#EAD8C6" style="transition: all 0.2s cubic-bezier(0, 0, 0, 1) 0s; transform: none; filter: brightness(1);"></path><path fill="#9E7A62" d="m526 382 47 50-62-7z" data-fill="#9E7A62" style="transition: all 0.2s cubic-bezier(0, 0, 0, 1) 0s; transform: none; filter: brightness(1);"></path><path fill="#936B49" d="m455 371-16 67 72-13z" data-fill="#936B49" style="transition: all 0.2s cubic-bezier(0, 0, 0, 1) 0s; transform: none; filter: brightness(1);"></path><path fill="#917663" d="m380 207-13 41 54 49z" data-fill="#917663" style="transition: all 0.2s cubic-bezier(0, 0, 0, 1) 0s; transform: none; filter: brightness(1);"></path><path fill="#74583B" d="m367 248 16 76 38-27z" data-fill="#74583B" style="transition: all 0.2s cubic-bezier(0, 0, 0, 1) 0s; transform: none; filter: brightness(1);"></path><path fill="#926A49" d="m383 324 72 47-34-74z" data-fill="#926A49" style="transition: all 0.2s cubic-bezier(0, 0, 0, 1) 0s; transform: none; filter: brightness(1);"></path><path fill="#6A5540" d="m383 324 56 114 16-67z" data-fill="#6A5540" style="transition: all 0.2s cubic-bezier(0, 0, 0, 1) 0s; transform: none; filter: brightness(1);"></path><path fill="#191722" d="m377 462-121 15 19 14 102-18z" data-fill="#191722" style="transition: all 0.2s cubic-bezier(0, 0, 0, 1) 0s; transform: none; filter: brightness(1);"></path><path fill="#292125" d="m377 473-124 22 21 12 103-25z" data-fill="#292125" style="transition: all 0.2s cubic-bezier(0, 0, 0, 1) 0s; transform: none; filter: brightness(1);"></path><path fill="#593E37" d="m377 482-134 31 20 17 121-40z" data-fill="#593E37" style="transition: all 0.2s cubic-bezier(0, 0, 0, 1) 0s; transform: none; filter: brightness(1);"></path><path fill="#44352E" d="m384 490-114 52 39 10 82-55z" data-fill="#44352E" style="transition: all 0.2s cubic-bezier(0, 0, 0, 1) 0s; transform: none; filter: brightness(1);"></path><path fill="#593C33" d="m391 497-71 48 3 20 76-58z" data-fill="#593C33" style="transition: all 0.2s cubic-bezier(0, 0, 0, 1) 0s; transform: none; filter: brightness(1);"></path><path fill="#8B6749" d="m412 517-73 35 60-45z" data-fill="#8B6749" style="transition: all 0.2s cubic-bezier(0, 0, 0, 1) 0s; transform: none; filter: brightness(1);"></path><path fill="#292125" d="m424 528-51 8 39-19z" data-fill="#292125" style="transition: all 0.2s cubic-bezier(0, 0, 0, 1) 0s; transform: none; filter: brightness(1);"></path><path fill="#D0B695" d="m610 407 34-59-64 40z" data-fill="#D0B695" style="transition: all 0.2s cubic-bezier(0, 0, 0, 1) 0s; transform: none; filter: brightness(1);"></path><path fill="#BC9674" d="m580 388 64-40-118 34z" data-fill="#BC9674" style="transition: all 0.2s cubic-bezier(0, 0, 0, 1) 0s; transform: none; filter: brightness(1);"></path><path fill="#806353" d="m526 382-11-14 27-34z" data-fill="#806353" style="transition: all 0.2s cubic-bezier(0, 0, 0, 1) 0s; transform: none; filter: brightness(1);"></path><path fill="#AB886C" d="m542 334 102 14-118 34z" data-fill="#AB886C" style="transition: all 0.2s cubic-bezier(0, 0, 0, 1) 0s; transform: none; filter: brightness(1);"></path><path fill="#C3A17C" d="m542 334 78-56 24 70z" data-fill="#C3A17C" style="transition: all 0.2s cubic-bezier(0, 0, 0, 1) 0s; transform: none; filter: brightness(1);"></path><path fill="#D2B59A" d="m620 278 107-3-83 73z" data-fill="#D2B59A" style="transition: all 0.2s cubic-bezier(0, 0, 0, 1) 0s; transform: none; filter: brightness(1.5);"></path><path fill="#71573C" d="m620 278 101-51 6 48z" data-fill="#71573C" style="transition: all 0.2s cubic-bezier(0, 0, 0, 1) 0s; transform: none; filter: brightness(1);"></path><path fill="#997663" d="m721 227 32 15-26 33z" data-fill="#997663" style="transition: all 0.2s cubic-bezier(0, 0, 0, 1) 0s; transform: none; filter: brightness(1);"></path><path fill="#191722" d="m753 242 47-112-8-25-50 132z" data-fill="#191722" style="transition: all 0.2s cubic-bezier(0, 0, 0, 1) 0s; transform: none; filter: brightness(1);"></path><path fill="#292125" d="m742 237 50-132-6-9-15 5-42 129z" data-fill="#292125" style="transition: all 0.2s cubic-bezier(0, 0, 0, 1) 0s; transform: none; filter: brightness(1);"></path><path fill="#593E37" d="m729 230 37-114-16-11-17 8-23 119 11-5zM542 334h-56l14 17 27 1z" data-fill="#593E37" style="transition: all 0.2s cubic-bezier(0, 0, 0, 1) 0s; transform: none; filter: brightness(1);"></path><path fill="#6F5640" d="M542 334h-56l-16-19 94 3z" data-fill="#6F5640" style="transition: all 0.2s cubic-bezier(0, 0, 0, 1) 0s; transform: none; filter: brightness(1);"></path><path fill="#8E6649" d="m564 318-87-2 18-19 87 8z" data-fill="#8E6649" style="transition: all 0.2s cubic-bezier(0, 0, 0, 1) 0s; transform: none; filter: brightness(1);"></path><path fill="#9E7A62" d="m609 286-107-11-12 11 5 11 87 8z" data-fill="#9E7A62" style="transition: all 0.2s cubic-bezier(0, 0, 0, 1) 0s; transform: none; filter: brightness(1);"></path><path fill="#A28864" d="m609 286-86-8-3-14 22-9 93 15-15 8z" data-fill="#A28864" style="transition: all 0.2s cubic-bezier(0, 0, 0, 1) 0s; transform: none; filter: brightness(1);"></path><path fill="#AF9472" d="m635 270-93-15 5-18 21-5 80 32z" data-fill="#AF9472" style="transition: all 0.2s cubic-bezier(0, 0, 0, 1) 0s; transform: none; filter: brightness(1);"></path><path fill="#8C6649" d="m648 264-80-32v-19l23-6 76 47z" data-fill="#8C6649" style="transition: all 0.2s cubic-bezier(0, 0, 0, 1) 0s; transform: none; filter: brightness(1);"></path><path fill="#6D573E" d="m667 254-66-56 4-22h18l57 72z" data-fill="#6D573E" style="transition: all 0.2s cubic-bezier(0, 0, 0, 1) 0s; transform: none; filter: brightness(1);"></path><path fill="#49474A" d="m680 248-45-75 9-26 20 4 28 91z" data-fill="#49474A" style="transition: all 0.2s cubic-bezier(0, 0, 0, 1) 0s; transform: none; filter: brightness(1);"></path><path fill="#44352E" d="m692 242-14-98 22-23 19 12-9 99z" data-fill="#44352E" style="transition: all 0.2s cubic-bezier(0, 0, 0, 1) 0s; transform: none; filter: brightness(1);"></path><path fill="#443536" d="m426 412-49 50-17 2v-11l60-53z" data-fill="#443536" style="transition: all 0.2s cubic-bezier(0, 0, 0, 1) 0s; transform: none; filter: brightness(1);"></path><path fill="#36251E" d="m420 400-60 54-15-3-3-8 74-51z" data-fill="#36251E" style="transition: all 0.2s cubic-bezier(0, 0, 0, 1) 0s; transform: none; filter: brightness(1);"></path><path fill="#191722" d="m435 430-58 32 49-50z" data-fill="#191722" style="transition: all 0.2s cubic-bezier(0, 0, 0, 1) 0s; transform: none; filter: brightness(1);"></path><path fill="#44352E" d="m416 392-74 51-17 3-1-9 87-56z" data-fill="#44352E" style="transition: all 0.2s cubic-bezier(0, 0, 0, 1) 0s; transform: none; filter: brightness(1);"></path><path fill="#593E37" d="m411 381-87 56-17-2-3-14 101-53z" data-fill="#593E37" style="transition: all 0.2s cubic-bezier(0, 0, 0, 1) 0s; transform: none; filter: brightness(1);"></path><path fill="#6F5640" d="m405 368-101 53-16-5 2-21 108-41z" data-fill="#6F5640" style="transition: all 0.2s cubic-bezier(0, 0, 0, 1) 0s; transform: none; filter: brightness(1);"></path><path fill="#9E7A62" d="m398 354-108 41-22-3v-22l122-33z" data-fill="#9E7A62" style="transition: all 0.2s cubic-bezier(0, 0, 0, 1) 0s; transform: none; filter: brightness(1);"></path><path fill="#AF9472" d="m390 337-122 34-18-3v-17l133-27z" data-fill="#AF9472" style="transition: all 0.2s cubic-bezier(0, 0, 0, 1) 0s; transform: none; filter: brightness(1);"></path><path fill="#AB7D5A" d="m383 324-133 27-16-11 9-16 137-19z" data-fill="#AB7D5A" style="transition: all 0.2s cubic-bezier(0, 0, 0, 1) 0s; transform: none; filter: brightness(1);"></path><path fill="#8C6649" d="m380 305-137 19-22-14 13-15 143-5z" data-fill="#8C6649" style="transition: all 0.2s cubic-bezier(0, 0, 0, 1) 0s; transform: none; filter: brightness(1);"></path><path fill="#49474A" d="m377 290-143 5-20-13 10-21 148 11z" data-fill="#49474A" style="transition: all 0.2s cubic-bezier(0, 0, 0, 1) 0s; transform: none; filter: brightness(1);"></path><path fill="#44352E" d="m372 272-148-11-25-19 13-13 155 19z" data-fill="#44352E" style="transition: all 0.2s cubic-bezier(0, 0, 0, 1) 0s; transform: none; filter: brightness(1);"></path><path fill="#593E37" d="m367 248-155-19-13-19 15-10 156 39z" data-fill="#593E37" style="transition: all 0.2s cubic-bezier(0, 0, 0, 1) 0s; transform: none; filter: brightness(1);"></path><path fill="#302022" d="m370 239-179-45-13-27 27-11 169 71z" data-fill="#302022" style="transition: all 0.2s cubic-bezier(0, 0, 0, 1) 0s; transform: none; filter: brightness(1);"></path><path fill="#1B100A" d="m374 227-193-81-7-40 28-7 175 117z" data-fill="#1B100A" style="transition: all 0.2s cubic-bezier(0, 0, 0, 1) 0s; transform: none; filter: brightness(1);"></path><path fill="#44362D" d="M377 216 191 91V58l25-3 164 152z" data-fill="#44362D" style="transition: all 0.2s cubic-bezier(0, 0, 0, 1) 0s; transform: none; filter: brightness(1);"></path><path fill="#191722" d="M380 207 250 54h-13l-3 17z" data-fill="#191722" style="transition: all 0.2s cubic-bezier(0, 0, 0, 1) 0s; transform: none; filter: brightness(1);"></path><path fill="#44352E" d="m527 352-12 16-15-17z" data-fill="#44352E" style="transition: all 0.2s cubic-bezier(0, 0, 0, 1) 0s; transform: none; filter: brightness(1);"></path><path fill="#563E34" d="m435 430 4 8-62 24z" data-fill="#563E34" style="transition: all 0.2s cubic-bezier(0, 0, 0, 1) 0s; transform: none; filter: brightness(1);"></path><path fill="#000" d="m465 517-38 11-28 10v-5l20-9 19-11 27 4ZM399 538l-5 3-5-6 5 3 5-3z" data-fill="#000" style="transition: all 0.2s cubic-bezier(0, 0, 0, 1) 0s; transform: none; filter: brightness(1);"></path><path fill="#000" d="m428 519-30 11-4-3 11-6 17-11 16 3zM398 530l-4 3-7-3h10z" data-fill="#000" style="transition: all 0.2s cubic-bezier(0, 0, 0, 1) 0s; transform: none; filter: brightness(1);"></path><path fill="#000" d="m422 510-22 9-2 6 9-4z" data-fill="#000" style="transition: all 0.2s cubic-bezier(0, 0, 0, 1) 0s; transform: none; filter: brightness(1);"></path></svg>