<svg class="cps-animal cps-breath" xmlns="http://www.w3.org/2000/svg" viewBox="0 0 960 600" ><path fill="#8A5F3F" d="m784 55 14 20v23l-83 25-36 75 5-4 38-10 25 5 28 17 20 17 13 26v31l-25 44-26 18-64 109-64 60-149 48-109-28-82-80-90-104v-83L72 283v-44l140-27 16-16 49-18 21 14 109-31 38-25 20 4 6 3 88-25-7-4-27 5 17-16 34-9 36 9h1l11-3 43-34h30l14 10 73-21ZM433 208l-137 41-17 3 26 57 78 41 44-20 4-116 2-6Zm132-40-59 18-2 53 48 76 3-92 10-55Z" data-fill="#8A5F3F" style="transition: all 2.02446s cubic-bezier(0.47, -0.6, 0.52, 1.65) 0s; transform: none;"></path><path fill="#774D29" d="m72 283 224-34L798 98V75L72 266z" data-fill="#774D29" style="transition: all 0.796505s cubic-bezier(0.47, -0.6, 0.52, 1.65) 0s; transform: none;"></path><path fill="#B58C57" d="m784 55 14 20L72 266v-27l188-37z" data-fill="#B58C57" style="transition: all 1.08948s cubic-bezier(0.47, -0.6, 0.52, 1.65) 0s; transform: none;"></path><path fill="#F1BA95" d="m211 212 17-16 49-18 21 14v15l-29-6z" data-fill="#F1BA95" style="transition: all 0.300286s cubic-bezier(0.47, -0.6, 0.52, 1.65) 0s; transform: none;"></path><path fill="#A56D49" d="M199 264v83l106-38-106-45Z" data-fill="#A56D49" style="transition: all 1.2668s cubic-bezier(0.47, -0.6, 0.52, 1.65) 0s; transform: none;"></path><path fill="#4D3617" d="m199 264 106 45-26-57z" data-fill="#4D3617" style="transition: all 1.24409s cubic-bezier(0.47, -0.6, 0.52, 1.65) 0s; transform: none;"></path><path fill="#A37143" d="m199 347 90 104 94-101z" data-fill="#A37143" style="transition: all 0.997004s cubic-bezier(0.47, -0.6, 0.52, 1.65) 0s; transform: none;"></path><path fill="#6B4E3A" d="m305 309 78 41-184-3z" data-fill="#6B4E3A" style="transition: all 0.72178s cubic-bezier(0.47, -0.6, 0.52, 1.65) 0s; transform: none;"></path><path fill="#6B4E3B" d="m383 350-19 121-75-20z" data-fill="#6B4E3B" style="transition: all 0.433365s cubic-bezier(0.47, -0.6, 0.52, 1.65) 0s; transform: none;"></path><path fill="#503B30" d="m289 451 82 80 31-50z" data-fill="#503B30" style="transition: all 2.2945s cubic-bezier(0.47, -0.6, 0.52, 1.65) 0s; transform: none;"></path><path fill="#8A5F3F" d="m383 350 19 131-38-10z" data-fill="#8A5F3F" style="transition: all 1.65419s cubic-bezier(0.47, -0.6, 0.52, 1.65) 0s; transform: none;"></path><path fill="#392A29" d="m371 531 109 28 149-48-227-30z" data-fill="#392A29" style="transition: all 2.86745s cubic-bezier(0.47, -0.6, 0.52, 1.65) 0s; transform: none;"></path><path fill="#735133" d="m383 350 74 60-55 71z" data-fill="#735133" style="transition: all 2.09264s cubic-bezier(0.47, -0.6, 0.52, 1.65) 0s; transform: none;"></path><path fill="#8A5F3F" d="m457 410 172 101-227-30z" data-fill="#8A5F3F" style="transition: all 2.04601s cubic-bezier(0.47, -0.6, 0.52, 1.65) 0s; transform: none;"></path><path fill="#C69061" d="m383 350 44-20 28 80-72-60Z" data-fill="#C69061" style="transition: all 2.86053s cubic-bezier(0.47, -0.6, 0.52, 1.65) 0s; transform: none;"></path><path fill="#735133" d="m427 330 202 181-174-101z" data-fill="#735133" style="transition: all 1.50371s cubic-bezier(0.47, -0.6, 0.52, 1.65) 0s; transform: none;"></path><path fill="#503C30" d="m427 330 125-15 77 196z" data-fill="#503C30" style="transition: all 2.58385s cubic-bezier(0.47, -0.6, 0.52, 1.65) 0s; transform: none;"></path><path fill="#6B4E3A" d="m431 214-4 116 77-91z" data-fill="#6B4E3A" style="transition: all 0.704829s cubic-bezier(0.47, -0.6, 0.52, 1.65) 0s; transform: none;"></path><path fill="#C69061" d="m504 239 48 76-125 15z" data-fill="#C69061" style="transition: all 1.64241s cubic-bezier(0.47, -0.6, 0.52, 1.65) 0s; transform: none;"></path><path fill="#816050" d="m504 239 3-69-76 44z" data-fill="#816050" style="transition: all 2.18374s cubic-bezier(0.47, -0.6, 0.52, 1.65) 0s; transform: none;"></path><path fill="#CBA481" d="m507 170-25-20-37 20-14 44z" data-fill="#CBA481" style="transition: all 0.215222s cubic-bezier(0.47, -0.6, 0.52, 1.65) 0s; transform: none;"></path><path fill="#F1BA95" d="m482 150-17-10-20-4-38 25 35-5 3 14z" data-fill="#F1BA95" style="transition: all 0.907945s cubic-bezier(0.47, -0.6, 0.52, 1.65) 0s; transform: none;"></path><path fill="#503C30" d="m629 511 64-60-25-135z" data-fill="#503C30" style="transition: all 2.70917s cubic-bezier(0.47, -0.6, 0.52, 1.65) 0s; transform: none;"></path><path fill="#735133" d="m552 315 116 1-39 195-77-196Z" data-fill="#735133" style="transition: all 0.563815s cubic-bezier(0.47, -0.6, 0.52, 1.65) 0s; transform: none;"></path><path fill="#F1BA95" d="m725 87-36-4 8-17z" data-fill="#F1BA95" style="transition: all 1.99714s cubic-bezier(0.47, -0.6, 0.52, 1.65) 0s; transform: none;"></path><path fill="#CBA481" d="M697 66h-30l-43 34 65-17 8-17Z" data-fill="#CBA481" style="transition: all 2.61771s cubic-bezier(0.47, -0.6, 0.52, 1.65) 0s; transform: none;"></path><path fill="#503C30" d="m716 122-64 134-23-85z" data-fill="#503C30" style="transition: all 2.73176s cubic-bezier(0.47, -0.6, 0.52, 1.65) 0s; transform: none;"></path><path fill="#513A30" d="m652 256 16 60-116-1z" data-fill="#513A30" style="transition: all 2.11216s cubic-bezier(0.47, -0.6, 0.52, 1.65) 0s; transform: none;"></path><path fill="#CBA481" d="m552 315 3-92 97 33z" data-fill="#CBA481" style="transition: all 0.636462s cubic-bezier(0.47, -0.6, 0.52, 1.65) 0s; transform: none;"></path><path fill="#6B4E3A" d="m652 256-23-86-74 53z" data-fill="#6B4E3A" style="transition: all 1.99264s cubic-bezier(0.47, -0.6, 0.52, 1.65) 0s; transform: none;"></path><path fill="#503C30" d="m555 223 18-97 56 44z" data-fill="#503C30" style="transition: all 2.56527s cubic-bezier(0.47, -0.6, 0.52, 1.65) 0s; transform: none;"></path><path fill="#816050" d="M629 170v-51l-17-16-39 23s56 47 56 44Z" data-fill="#816050" style="transition: all 0.148843s cubic-bezier(0.47, -0.6, 0.52, 1.65) 0s; transform: none;"></path><path fill="#CBA481" d="m612 103-36-9-16 25 13 7z" data-fill="#CBA481" style="transition: all 1.03238s cubic-bezier(0.47, -0.6, 0.52, 1.65) 0s; transform: none;"></path><path d="m576 94-34 9-17 16 27-5 8 5z" fill="rgba(255,255,255,0)" style="transition: all 0.284056s cubic-bezier(0.47, -0.6, 0.52, 1.65) 0s; transform: none;"></path><path fill="#562F14" d="m668 316-22-28-2-35 24 24 6 29z" data-fill="#562F14" style="transition: all 2.08074s cubic-bezier(0.47, -0.6, 0.52, 1.65) 0s; transform: none;"></path><path fill="#392A29" d="m668 316 26 26-20-36" data-fill="#392A29" style="transition: all 2.46987s cubic-bezier(0.47, -0.6, 0.52, 1.65) 0s; transform: none;"></path><path fill="#35260A" d="m684 324 54 7 45-7-26 18h-63l-10-18Z" data-fill="#35260A" style="transition: all 1.10233s cubic-bezier(0.47, -0.6, 0.52, 1.65) 0s; transform: none;"></path><path fill="#D6A981" d="m808 249-21 28-4 47 25-44z" data-fill="#D6A981" style="transition: all 1.0244s cubic-bezier(0.47, -0.6, 0.52, 1.65) 0s; transform: none;"></path><path fill="#D5AD8C" d="m808 249-13-26-20-17 5 36 28 7Z" data-fill="#D5AD8C" style="transition: all 0.913047s cubic-bezier(0.47, -0.6, 0.52, 1.65) 0s; transform: none;"></path><path fill="#E4AF8B" d="m775 206-28-17-25-5-10 34z" data-fill="#E4AF8B" style="transition: all 0.447432s cubic-bezier(0.47, -0.6, 0.52, 1.65) 0s; transform: none;"></path><path fill="#FBDCC1" d="m722 184-38 10-25 21 53 4z" data-fill="#FBDCC1" style="transition: all 2.53607s cubic-bezier(0.47, -0.6, 0.52, 1.65) 0s; transform: none;"></path><path fill="#C08B62" d="m659 215-15 38 24 24 13-31z" data-fill="#C08B62" style="transition: all 1.95676s cubic-bezier(0.47, -0.6, 0.52, 1.65) 0s; transform: none;"></path><path fill="#A37143" d="m712 218-13 24-18 4-22-31z" data-fill="#A37143" style="transition: all 2.52249s cubic-bezier(0.47, -0.6, 0.52, 1.65) 0s; transform: none;"></path><path fill="#A56D49" d="m712 218 68 24-5-36z" data-fill="#A56D49" style="transition: all 2.19465s cubic-bezier(0.47, -0.6, 0.52, 1.65) 0s; transform: none;"></path><path fill="#D7A97D" d="M699 242h23l-10-24z" data-fill="#D7A97D" style="transition: all 1.01062s cubic-bezier(0.47, -0.6, 0.52, 1.65) 0s; transform: none;"></path><path fill="#B27A45" d="M722 242h24l9-9-43-15" data-fill="#B27A45" style="transition: all 2.02915s cubic-bezier(0.47, -0.6, 0.52, 1.65) 0s; transform: none;"></path><path fill="#47250F" d="m751 265 5-12 8-4 8 4 6 10-6 10h-12zM710 265l-11 11h-9l-9-9 13-14 11 3z" data-fill="#47250F" style="transition: all 2.37764s cubic-bezier(0.47, -0.6, 0.52, 1.65) 0s; transform: none;"></path><path fill="#121010" d="m722 273-6 4 6 10 19 1 7-6v-5l-4-4-11 4z" data-fill="#121010" style="transition: all 1.22645s cubic-bezier(0.47, -0.6, 0.52, 1.65) 0s; transform: none;"></path><path fill="#8B6B64" d="m728 255-9 12 3 6 11 4 11-4 4-3-7-13-13-2Z" data-fill="#8B6B64" style="transition: all 2.5824s cubic-bezier(0.47, -0.6, 0.52, 1.65) 0s; transform: none;"></path><path fill="#98694E" d="m719 267-14 13 17 7-6-10 6-4z" data-fill="#98694E" style="transition: all 2.11531s cubic-bezier(0.47, -0.6, 0.52, 1.65) 0s; transform: none;"></path><path fill="#C79B80" d="m748 270-4 3 4 4v5l-7 6 20-10z" data-fill="#C79B80" style="transition: all 1.5599s cubic-bezier(0.47, -0.6, 0.52, 1.65) 0s; transform: none;"></path><path fill="#180B0B" d="m761 278 2 4-19 11h-22l-18-9 1-4 17 7 19 1z" data-fill="#180B0B" style="transition: all 1.4677s cubic-bezier(0.47, -0.6, 0.52, 1.65) 0s; transform: none;"></path><path fill="#58351E" d="m722 293-48 13 10 18z" data-fill="#58351E" style="transition: all 2.92495s cubic-bezier(0.47, -0.6, 0.52, 1.65) 0s; transform: none;"></path><path fill="#3E2312" d="m722 293 16 49h-44l-10-18 38-31Z" data-fill="#3E2312" style="transition: all 1.47023s cubic-bezier(0.47, -0.6, 0.52, 1.65) 0s; transform: none;"></path><path fill="#58351E" d="M722 293h22l26 26-32 23z" data-fill="#58351E" style="transition: all 1.98702s cubic-bezier(0.47, -0.6, 0.52, 1.65) 0s; transform: none;"></path><path fill="#67391A" d="m738 342 47-34-2 16z" data-fill="#67391A" style="transition: all 1.66519s cubic-bezier(0.47, -0.6, 0.52, 1.65) 0s; transform: none;"></path><path fill="#82552F" d="m763 282-19 11 26 26z" data-fill="#82552F" style="transition: all 2.32907s cubic-bezier(0.47, -0.6, 0.52, 1.65) 0s; transform: none;"></path><path fill="#AF642B" d="m763 282 9-9 6 4-2 11 9 5v15l-15 11z" data-fill="#AF642B" style="transition: all 0.6515s cubic-bezier(0.47, -0.6, 0.52, 1.65) 0s; transform: none;"></path><path fill="#C29C71" d="m780 242-16 7 8 4 6 10 9 14z" data-fill="#C29C71" style="transition: all 1.59143s cubic-bezier(0.47, -0.6, 0.52, 1.65) 0s; transform: none;"></path><path fill="#A56E49" d="m780 242 7 36 21-29z" data-fill="#A56E49" style="transition: all 0.380788s cubic-bezier(0.47, -0.6, 0.52, 1.65) 0s; transform: none;"></path><path fill="#FFE5BB" d="m755 233-9 9 5 23 5-12 8-4 16-7z" data-fill="#FFE5BB" style="transition: all 1.69385s cubic-bezier(0.47, -0.6, 0.52, 1.65) 0s; transform: none;"></path><path fill="#C29C71" d="m751 265-3 5-7-13 5-15z" data-fill="#C29C71" style="transition: all 2.55295s cubic-bezier(0.47, -0.6, 0.52, 1.65) 0s; transform: none;"></path><path fill="#C3977A" d="m746 242-5 15-13-2-6-13z" data-fill="#C3977A" style="transition: all 2.7965s cubic-bezier(0.47, -0.6, 0.52, 1.65) 0s; transform: none;"></path><path fill="#FACBA7" d="m728 255-9 12-9-2-5-9-11-3 5-11h23z" data-fill="#FACBA7" style="transition: all 1.52664s cubic-bezier(0.47, -0.6, 0.52, 1.65) 0s; transform: none;"></path><path fill="#D9935F" d="m699 242-5 11-13 14-7 15v24l-6-29 13-31z" data-fill="#D9935F" style="transition: all 0.223907s cubic-bezier(0.47, -0.6, 0.52, 1.65) 0s; transform: none;"></path><path fill="#240C0F" d="m690 276-16 30v-24l7-15z" data-fill="#240C0F" style="transition: all 0.369795s cubic-bezier(0.47, -0.6, 0.52, 1.65) 0s; transform: none;"></path><path fill="#301210" d="m778 263-6 10 6 4-2 11 9 5 2-16z" data-fill="#301210" style="transition: all 1.68252s cubic-bezier(0.47, -0.6, 0.52, 1.65) 0s; transform: none;"></path><path fill="#82542B" d="m674 306 48-13-18-9 1-4 14-13-9-2-11 11h-9z" data-fill="#82542B" style="transition: all 1.25825s cubic-bezier(0.47, -0.6, 0.52, 1.65) 0s; transform: none;"></path><path fill="#A07A47" d="m751 265-3 5 13 8 2 4 9-9h-12z" data-fill="#A07A47" style="transition: all 0.334316s cubic-bezier(0.47, -0.6, 0.52, 1.65) 0s; transform: none;"></path><path fill="#FFF" d="m770 257-3 5 6-1zM693 259l-6 7 9-1z" data-fill="#FFF" style="transition: all 1.02198s cubic-bezier(0.47, -0.6, 0.52, 1.65) 0s; transform: none;"></path><path fill="#735133" d="m694 342-1 109-25-135z" data-fill="#735133" style="transition: all 2.61142s cubic-bezier(0.47, -0.6, 0.52, 1.65) 0s; transform: none;"></path><path fill="#4D3617" d="m757 342-64 109v-83z" data-fill="#4D3617" style="transition: all 2.40324s cubic-bezier(0.47, -0.6, 0.52, 1.65) 0s; transform: none;"></path><path fill="#2D1F1E" d="m757 342-64 26 1-26z" data-fill="#2D1F1E" style="transition: all 0.878706s cubic-bezier(0.47, -0.6, 0.52, 1.65) 0s; transform: none;"></path><path fill="#392A29" d="m716 122-87 49v-22l87-27Z" data-fill="#392A29" style="transition: all 0.564383s cubic-bezier(0.47, -0.6, 0.52, 1.65) 0s; transform: none;"></path></svg>