<?xml version="1.0" encoding="iso-8859-1"?>
<!-- Uploaded to: SVG Repo, www.svgrepo.com, Generator: SVG Repo Mixer Tools -->
<svg fill="#000000" height="800px" width="800px" version="1.1" id="Capa_1" xmlns="http://www.w3.org/2000/svg" xmlns:xlink="http://www.w3.org/1999/xlink" 
	 viewBox="0 0 60 60" xml:space="preserve">
<g>
	<g>
		<path d="M59,20c-0.553,0-1,0.447-1,1v4h-1v-0.59c0-1.329-1.081-2.41-2.41-2.41H49V0H11v22H5.411C4.082,22,3,23.081,3,24.41V25H2
			v-4c0-0.553-0.448-1-1-1s-1,0.447-1,1v10c0,0.553,0.448,1,1,1s1-0.447,1-1v-4h1v0.59C3,28.919,4.082,30,5.411,30H6v4H2v5H1v2h1h2
			h1v-2H4v-3h2v10c0,1.859,1.28,3.411,3,3.858v6.527C9,58.378,10.622,60,12.615,60h34.77C49.378,60,51,58.378,51,56.385v-6.527
			c1.721-0.447,3-1.999,3-3.858V30h0.59c1.329,0,2.41-1.081,2.41-2.41V27h1v4c0,0.553,0.447,1,1,1s1-0.447,1-1V21
			C60,20.447,59.553,20,59,20z M13,2h34v20H13V2z M49,56.385C49,57.275,48.275,58,47.385,58h-34.77C11.725,58,11,57.275,11,56.385
			V50V40h38v10V56.385z M52,46c0,0.739-0.402,1.386-1,1.731V38H9v9.731C8.403,47.386,8,46.739,8,46V30h6.085
			c-0.007,0.042-0.008,0.084-0.014,0.126c-0.02,0.139-0.037,0.278-0.048,0.42c-0.007,0.089-0.011,0.178-0.014,0.268
			C14.008,30.876,14,30.937,14,31s0.007,0.124,0.009,0.186c0.003,0.088,0.007,0.177,0.013,0.265
			c0.011,0.142,0.028,0.283,0.048,0.422c0.01,0.066,0.018,0.132,0.03,0.198c0.031,0.169,0.07,0.334,0.114,0.497
			c0.009,0.034,0.014,0.069,0.024,0.104c0.002,0.008,0.007,0.015,0.009,0.024c0.086,0.292,0.196,0.572,0.323,0.843
			c0.015,0.032,0.03,0.063,0.046,0.095C15.595,35.624,17.637,37,20,37h0.182h19.636H40c2.363,0,4.405-1.376,5.383-3.366
			c0.016-0.032,0.031-0.063,0.046-0.095c0.127-0.271,0.237-0.552,0.323-0.843c0.002-0.008,0.007-0.016,0.009-0.024
			c0.01-0.034,0.015-0.069,0.024-0.104c0.044-0.163,0.083-0.328,0.114-0.496c0.012-0.067,0.021-0.133,0.031-0.2
			c0.02-0.139,0.037-0.279,0.048-0.421c0.007-0.089,0.011-0.177,0.013-0.265C45.992,31.124,46,31.063,46,31
			s-0.008-0.124-0.009-0.186c-0.003-0.09-0.007-0.18-0.014-0.27c-0.011-0.141-0.028-0.28-0.048-0.418
			c-0.006-0.042-0.007-0.084-0.014-0.126H52V46z M17.043,28.33c0.083-0.092,0.169-0.18,0.259-0.264
			c0.084-0.077,0.174-0.148,0.264-0.218c0.087-0.067,0.171-0.139,0.263-0.199c0.171-0.111,0.351-0.208,0.539-0.293
			c0.08-0.036,0.164-0.063,0.246-0.094c0.145-0.054,0.292-0.101,0.445-0.138c0.077-0.019,0.154-0.038,0.232-0.052
			C19.521,27.03,19.757,27,20,27h20c0.243,0,0.479,0.03,0.71,0.072c0.078,0.014,0.155,0.033,0.232,0.052
			c0.152,0.037,0.3,0.084,0.445,0.138c0.082,0.031,0.166,0.058,0.246,0.094c0.188,0.084,0.368,0.182,0.539,0.293
			c0.092,0.06,0.176,0.132,0.263,0.199c0.09,0.07,0.18,0.141,0.264,0.218c0.09,0.083,0.176,0.172,0.259,0.264
			c0.064,0.071,0.124,0.146,0.183,0.221c0.08,0.103,0.162,0.205,0.233,0.317c0.041,0.065,0.073,0.136,0.11,0.203
			c0.061,0.109,0.125,0.216,0.176,0.332c0.064,0.146,0.107,0.297,0.153,0.447c0.026,0.085,0.059,0.167,0.079,0.255
			c0.027,0.113,0.037,0.229,0.053,0.344c0.02,0.14,0.038,0.28,0.043,0.424c0.003,0.107-0.002,0.214-0.007,0.322
			c-0.007,0.146-0.021,0.29-0.044,0.431c-0.018,0.11-0.038,0.221-0.065,0.331c-0.035,0.14-0.078,0.275-0.127,0.408
			c-0.035,0.094-0.066,0.19-0.108,0.28c-0.049,0.109-0.111,0.209-0.17,0.313c-0.527,0.906-1.414,1.578-2.466,1.871V29
			c0-0.553-0.448-1-1-1s-1,0.447-1,1v6h-2v-5c0-0.553-0.448-1-1-1s-1,0.447-1,1v5h-2v-4c0-0.553-0.448-1-1-1s-1,0.447-1,1v4h-2v-4
			c0-0.553-0.448-1-1-1s-1,0.447-1,1v4h-2v-5c0-0.553-0.448-1-1-1s-1,0.447-1,1v5h-2v-6c0-0.553-0.448-1-1-1s-1,0.447-1,1v5.829
			c-1.053-0.293-1.939-0.965-2.466-1.871c-0.059-0.103-0.12-0.204-0.17-0.313c-0.042-0.091-0.074-0.186-0.108-0.28
			c-0.049-0.133-0.092-0.269-0.127-0.408c-0.027-0.11-0.048-0.22-0.065-0.331c-0.022-0.141-0.036-0.285-0.044-0.431
			c-0.005-0.107-0.01-0.215-0.007-0.322c0.005-0.144,0.023-0.284,0.043-0.424c0.016-0.115,0.027-0.23,0.053-0.344
			c0.02-0.088,0.053-0.169,0.079-0.255c0.046-0.15,0.088-0.301,0.153-0.447c0.051-0.116,0.115-0.223,0.176-0.332
			c0.037-0.067,0.069-0.138,0.11-0.203c0.071-0.112,0.152-0.214,0.233-0.317C16.92,28.476,16.979,28.401,17.043,28.33z M55,27.59
			c0,0.227-0.184,0.41-0.41,0.41H54h-8.812c-0.395-0.681-0.92-1.276-1.541-1.754c-0.005-0.004-0.01-0.007-0.015-0.011
			c-0.199-0.152-0.407-0.292-0.624-0.419c-0.006-0.003-0.011-0.007-0.017-0.01c-0.427-0.247-0.887-0.442-1.372-0.578
			c-0.046-0.013-0.092-0.024-0.139-0.036c-0.187-0.048-0.378-0.086-0.572-0.116c-0.06-0.009-0.119-0.02-0.179-0.027
			C40.49,25.02,40.247,25,40,25H20c-0.247,0-0.49,0.02-0.73,0.049c-0.06,0.007-0.119,0.018-0.179,0.027
			c-0.194,0.03-0.384,0.068-0.572,0.116c-0.046,0.012-0.093,0.023-0.139,0.036c-0.485,0.136-0.945,0.331-1.372,0.578
			c-0.006,0.003-0.011,0.007-0.017,0.01c-0.217,0.127-0.425,0.267-0.624,0.419c-0.005,0.004-0.01,0.007-0.015,0.011
			c-0.621,0.478-1.146,1.073-1.541,1.754H6H5.411C5.184,28,5,27.816,5,27.59v-3.18C5,24.184,5.184,24,5.411,24H11h38h5.59
			c0.227,0,0.41,0.184,0.41,0.41V27.59z"/>
		<path d="M16,49c2.206,0,4-1.794,4-4s-1.794-4-4-4s-4,1.794-4,4S13.794,49,16,49z M16,43c1.103,0,2,0.897,2,2s-0.897,2-2,2
			s-2-0.897-2-2S14.897,43,16,43z"/>
		<path d="M44,41c-2.206,0-4,1.794-4,4s1.794,4,4,4s4-1.794,4-4S46.206,41,44,41z M44,47c-1.103,0-2-0.897-2-2s0.897-2,2-2
			s2,0.897,2,2S45.103,47,44,47z"/>
		<path d="M35,49c2.206,0,4-1.794,4-4s-1.794-4-4-4s-4,1.794-4,4S32.794,49,35,49z M35,43c1.103,0,2,0.897,2,2s-0.897,2-2,2
			s-2-0.897-2-2S33.897,43,35,43z"/>
		<path d="M25,49c2.206,0,4-1.794,4-4s-1.794-4-4-4s-4,1.794-4,4S22.794,49,25,49z M25,43c1.103,0,2,0.897,2,2s-0.897,2-2,2
			s-2-0.897-2-2S23.897,43,25,43z"/>
		<path d="M45.212,50H14.788C13.802,50,13,50.802,13,51.788v2.424C13,55.198,13.802,56,14.788,56h30.424
			C46.198,56,47,55.198,47,54.212v-2.424C47,50.802,46.198,50,45.212,50z M45,54H15v-2h30V54z"/>
		<path d="M36,17h-2c-0.552,0-1,0.447-1,1s0.448,1,1,1h2c0.552,0,1-0.447,1-1S36.552,17,36,17z"/>
		<path d="M30,17h-7c-0.552,0-1,0.447-1,1s0.448,1,1,1h7c0.552,0,1-0.447,1-1S30.552,17,30,17z"/>
		<path d="M18.29,17.29C18.11,17.479,18,17.74,18,18c0,0.27,0.11,0.52,0.29,0.71C18.48,18.89,18.74,19,19,19s0.52-0.11,0.71-0.29
			C19.89,18.52,20,18.26,20,18s-0.11-0.521-0.29-0.71C19.34,16.92,18.66,16.92,18.29,17.29z"/>
	</g>
</g>
</svg>