<svg class="cps-animal" xmlns="http://www.w3.org/2000/svg" viewBox="0 0 960 600" width="400" height="400"><path fill="#CB793E" d="m225 16-7 15 11-7-2 12 8 1 39 6-4 1 29 28 102 58-10 7 74 46 111-20 101 8 24 25 63 31 71 15 48-15-44 43-30 13-42-20-53-39-6 59-14 52 49 36h29l28 45 19 27 4 3 23-9 12 2v32l-26-5-16-8-10 1-36-55-17 4 6 8 40 121-11 11 7 16-3 11-36 10 6-22 10-20-19-77-17-25-101-87-44-32v-1l-117 26h-3 1-82l4 98v3l3 73v9l-21 27 4 13-6 6h-33l10-19 27-31-7-71-7-12-4-33-11-63-14-9-76 45-88 75-29 16-2 14-8 3-30-13 17-14 79-55 53-48 37-58-18-45-28-95-24-30-40 19-28 18-2 14h-25l-19-24 7-13 21-35 31-46 29-25-29 25-22 7 33-29 18-3z" data-fill="#CB793E" style="transition: all 2.0121s cubic-bezier(0.47, -0.6, 0.52, 1.65) 0s; transform: none;"></path><path fill="#CD7F50" d="m192 41-29 25-31 46 57-47z" data-fill="#CD7F50" style="transition: all 1.90615s cubic-bezier(0.47, -0.6, 0.52, 1.65) 0s; transform: none;"></path><path fill="#58563D" d="m174 44-33 29 22-7 29-25-18 3Z" data-fill="#58563D" style="transition: all 0.180956s cubic-bezier(0.47, -0.6, 0.52, 1.65) 0s; transform: none;"></path><path fill="#B58053" d="m229 24-22 15 19 4 3-19Z" data-fill="#B58053" style="transition: all 1.9213s cubic-bezier(0.47, -0.6, 0.52, 1.65) 0s; transform: none;"></path><path fill="#5F3524" d="m225 16-22 50-11-25z" data-fill="#5F3524" style="transition: all 0.631852s cubic-bezier(0.47, -0.6, 0.52, 1.65) 0s; transform: none;"></path><path fill="#A56F44" d="m189 65-11 87-46-40z" data-fill="#A56F44" style="transition: all 0.0285083s cubic-bezier(0.47, -0.6, 0.52, 1.65) 0s; transform: none;"></path><path fill="#B48055" d="m132 112-21 35 41 7z" data-fill="#B48055" style="transition: all 1.95103s cubic-bezier(0.47, -0.6, 0.52, 1.65) 0s; transform: none;"></path><path fill="#7E482C" d="m178 152-26 2-2 16z" data-fill="#7E482C" style="transition: all 2.2248s cubic-bezier(0.47, -0.6, 0.52, 1.65) 0s; transform: none;"></path><path fill="#262420" d="m152 154-29 30h25z" data-fill="#262420" style="transition: all 2.92795s cubic-bezier(0.47, -0.6, 0.52, 1.65) 0s; transform: none;"></path><path fill="#646259" d="m111 147-7 13 48-6z" data-fill="#646259" style="transition: all 0.523022s cubic-bezier(0.47, -0.6, 0.52, 1.65) 0s; transform: none;"></path><path fill="#564E4E" d="m104 160 19 24 29-30z" data-fill="#564E4E" style="transition: all 1.16141s cubic-bezier(0.47, -0.6, 0.52, 1.65) 0s; transform: none;"></path><path fill="#402C18" d="m217 35 18 2 16 15-39-7z" data-fill="#402C18" style="transition: all 0.179309s cubic-bezier(0.47, -0.6, 0.52, 1.65) 0s; transform: none;"></path><path fill="#9E582C" d="m192 41 26 92-40 19z" data-fill="#9E582C" style="transition: all 1.89509s cubic-bezier(0.47, -0.6, 0.52, 1.65) 0s; transform: none;"></path><path fill="#783B17" d="m192 41 31 49-5 43z" data-fill="#783B17" style="transition: all 0.222018s cubic-bezier(0.47, -0.6, 0.52, 1.65) 0s; transform: none;"></path><path fill="#B88155" d="m251 52-28 39-31-50z" data-fill="#B88155" style="transition: all 1.1584s cubic-bezier(0.47, -0.6, 0.52, 1.65) 0s; transform: none;"></path><path fill="#612D14" d="m223 90 51 113-56-70c2-29 4-43 5-43Z" data-fill="#612D14" style="transition: all 2.03522s cubic-bezier(0.47, -0.6, 0.52, 1.65) 0s; transform: none;"></path><path fill="#3A1F10" d="m242 163 28 95 4-55z" data-fill="#3A1F10" style="transition: all 2.71225s cubic-bezier(0.47, -0.6, 0.52, 1.65) 0s; transform: none;"></path><path fill="#A25B2A" d="m274 203 102-55-153-58z" data-fill="#A25B2A" style="transition: all 2.84049s cubic-bezier(0.47, -0.6, 0.52, 1.65) 0s; transform: none;"></path><path fill="#BF7540" d="M376 148 270 258l4-55z" data-fill="#BF7540" style="transition: all 2.87499s cubic-bezier(0.47, -0.6, 0.52, 1.65) 0s; transform: none;"></path><path fill="#53382E" d="m376 148-90-83 115 65z" data-fill="#53382E" style="transition: all 1.59468s cubic-bezier(0.47, -0.6, 0.52, 1.65) 0s; transform: none;"></path><path fill="#BB6C33" d="m320 201-32 102-18-45z" data-fill="#BB6C33" style="transition: all 2.5233s cubic-bezier(0.47, -0.6, 0.52, 1.65) 0s; transform: none;"></path><path fill="#C9804C" d="m376 148 89 35-145 18 56-53Z" data-fill="#C9804C" style="transition: all 1.96529s cubic-bezier(0.47, -0.6, 0.52, 1.65) 0s; transform: none;"></path><path fill="#CB793E" d="M391 191 288 303l32-102z" data-fill="#CB793E" style="transition: all 2.48358s cubic-bezier(0.47, -0.6, 0.52, 1.65) 0s; transform: none;"></path><path fill="#AA5A1E" d="m465 183-121 93 47-85z" data-fill="#AA5A1E" style="transition: all 2.73198s cubic-bezier(0.47, -0.6, 0.52, 1.65) 0s; transform: none;"></path><path fill="#7C4121" d="m576 163-111 20-34 26 145-46Z" data-fill="#7C4121" style="transition: all 1.99261s cubic-bezier(0.47, -0.6, 0.52, 1.65) 0s; transform: none;"></path><path fill="#954512" d="M576 163 432 332l-1-123z" data-fill="#954512" style="transition: all 1.77777s cubic-bezier(0.47, -0.6, 0.52, 1.65) 0s; transform: none;"></path><path fill="#B9723E" d="m376 312 56 20-1-123z" data-fill="#B9723E" style="transition: all 0.556954s cubic-bezier(0.47, -0.6, 0.52, 1.65) 0s; transform: none;"></path><path fill="#6A3212" d="M349 347h124l-97-35z" data-fill="#6A3212" style="transition: all 1.6808s cubic-bezier(0.47, -0.6, 0.52, 1.65) 0s; transform: none;"></path><path fill="#211914" d="m390 347-30 63-11-63z" data-fill="#211914" style="transition: all 1.51691s cubic-bezier(0.47, -0.6, 0.52, 1.65) 0s; transform: none;"></path><path fill="#663D24" d="m390 347 4 98v3l-34-38z" data-fill="#663D24" style="transition: all 2.0226s cubic-bezier(0.47, -0.6, 0.52, 1.65) 0s; transform: none;"></path><path fill="#935621" d="m360 410 34 38-23 7-7-12z" data-fill="#935621" style="transition: all 0.0701044s cubic-bezier(0.47, -0.6, 0.52, 1.65) 0s; transform: none;"></path><path fill="#B97341" d="m394 448 3 73-26-66z" data-fill="#B97341" style="transition: all 0.446717s cubic-bezier(0.47, -0.6, 0.52, 1.65) 0s; transform: none;"></path><path fill="#53382E" d="m235 37 39 6-23 9-16-15Z" data-fill="#53382E" style="transition: all 2.2371s cubic-bezier(0.47, -0.6, 0.52, 1.65) 0s; transform: none;"></path><path fill="#2E1C13" d="m251 52 125 96L270 44z" data-fill="#2E1C13" style="transition: all 2.48354s cubic-bezier(0.47, -0.6, 0.52, 1.65) 0s; transform: none;"></path><path fill="#CD8344" d="m397 530-46 27 27-31" data-fill="#CD8344" style="transition: all 0.879074s cubic-bezier(0.47, -0.6, 0.52, 1.65) 0s; transform: none;"></path><path fill="#AD9774" d="m380 570-6 6h-33l10-19z" data-fill="#AD9774" style="transition: all 0.399763s cubic-bezier(0.47, -0.6, 0.52, 1.65) 0s; transform: none;"></path><path fill="#683C16" d="m397 530-21 27h-25z" data-fill="#683C16" style="transition: all 2.66242s cubic-bezier(0.47, -0.6, 0.52, 1.65) 0s; transform: none;"></path><path fill="#AA5A1E" d="M351 557h25l4 13z" data-fill="#AA5A1E" style="transition: all 1.34169s cubic-bezier(0.47, -0.6, 0.52, 1.65) 0s; transform: none;"></path><path fill="#834414" d="m595 290-163 42 41 15z" data-fill="#834414" style="transition: all 1.89523s cubic-bezier(0.47, -0.6, 0.52, 1.65) 0s; transform: none;"></path><path fill="#422111" d="m595 290 8 29-132 28z" data-fill="#422111" style="transition: all 0.0297777s cubic-bezier(0.47, -0.6, 0.52, 1.65) 0s; transform: none;"></path><path fill="#A25B2A" d="M576 163 432 332l163-42z" data-fill="#A25B2A" style="transition: all 0.870787s cubic-bezier(0.47, -0.6, 0.52, 1.65) 0s; transform: none;"></path><path fill="#6A3212" d="m576 163 139 48-38-40-101-8Z" data-fill="#6A3212" style="transition: all 1.91718s cubic-bezier(0.47, -0.6, 0.52, 1.65) 0s; transform: none;"></path><path fill="#C9804C" d="m576 163 41 48h98z" data-fill="#C9804C" style="transition: all 2.98704s cubic-bezier(0.47, -0.6, 0.52, 1.65) 0s; transform: none;"></path><path fill="#6A3212" d="m617 211-22 79-19-127z" data-fill="#6A3212" style="transition: all 1.74205s cubic-bezier(0.47, -0.6, 0.52, 1.65) 0s; transform: none;"></path><path fill="#834414" d="m617 211 70 54-28 55-64-30z" data-fill="#834414" style="transition: all 2.76997s cubic-bezier(0.47, -0.6, 0.52, 1.65) 0s; transform: none;"></path><path fill="#AA5A1E" d="m715 211-28 55-70-55z" data-fill="#AA5A1E" style="transition: all 1.30237s cubic-bezier(0.47, -0.6, 0.52, 1.65) 0s; transform: none;"></path><path fill="#65361A" d="m715 211-7 72-14 52-35-15z" data-fill="#65361A" style="transition: all 2.60088s cubic-bezier(0.47, -0.6, 0.52, 1.65) 0s; transform: none;"></path><path fill="#844415" d="m635 354 59-19 43 106z" data-fill="#844415" style="transition: all 2.04574s cubic-bezier(0.47, -0.6, 0.52, 1.65) 0s; transform: none;"></path><path fill="#482A17" d="m708 370 51 46-23 25z" data-fill="#482A17" style="transition: all 0.87046s cubic-bezier(0.47, -0.6, 0.52, 1.65) 0s; transform: none;"></path><path fill="#8A4B23" d="m737 441 63 95-41-120z" data-fill="#8A4B23" style="transition: all 0.578221s cubic-bezier(0.47, -0.6, 0.52, 1.65) 0s; transform: none;"></path><path fill="#C78047" d="m753 466 23 94 23-23z" data-fill="#C78047" style="transition: all 0.195907s cubic-bezier(0.47, -0.6, 0.52, 1.65) 0s; transform: none;"></path><path fill="#AC713A" d="m773 543-11 20 15-3z" data-fill="#AC713A" style="transition: all 1.54329s cubic-bezier(0.47, -0.6, 0.52, 1.65) 0s; transform: none;"></path><path fill="#B26C3D" d="m788 548 7 17-19-5z" data-fill="#B26C3D" style="transition: all 0.953817s cubic-bezier(0.47, -0.6, 0.52, 1.65) 0s; transform: none;"></path><path fill="#BDAA8C" d="m762 564-6 21 36-9 3-12-18-4z" data-fill="#BDAA8C" style="transition: all 0.744885s cubic-bezier(0.47, -0.6, 0.52, 1.65) 0s; transform: none;"></path><path fill="#CA804E" d="m132 112 20 42 26-2-46-40Z" data-fill="#CA804E" style="transition: all 1.38889s cubic-bezier(0.47, -0.6, 0.52, 1.65) 0s; transform: none;"></path><path fill="#C9804C" d="m371 455 7 71 19-5z" data-fill="#C9804C" style="transition: all 2.71682s cubic-bezier(0.47, -0.6, 0.52, 1.65) 0s; transform: none;"></path><path fill="#935621" d="m378 526 19-5v9z" data-fill="#935621" style="transition: all 1.14846s cubic-bezier(0.47, -0.6, 0.52, 1.65) 0s; transform: none;"></path><path fill="#211914" d="m335 338-79 47 68-55z" data-fill="#211914" style="transition: all 1.7629s cubic-bezier(0.47, -0.6, 0.52, 1.65) 0s; transform: none;"></path><path fill="#A25B2A" d="m288 303-37 58 84-23z" data-fill="#A25B2A" style="transition: all 1.5458s cubic-bezier(0.47, -0.6, 0.52, 1.65) 0s; transform: none;"></path><path fill="#935621" d="m302 347-51 14 8 22z" data-fill="#935621" style="transition: all 1.19181s cubic-bezier(0.47, -0.6, 0.52, 1.65) 0s; transform: none;"></path><path fill="#B9723E" d="m344 276-56 27 47 35z" data-fill="#B9723E" style="transition: all 1.77745s cubic-bezier(0.47, -0.6, 0.52, 1.65) 0s; transform: none;"></path><path fill="#B5662C" d="M391 191 288 303l56-27z" data-fill="#B5662C" style="transition: all 1.2915s cubic-bezier(0.47, -0.6, 0.52, 1.65) 0s; transform: none;"></path><path fill="#AA5A1E" d="m344 276-9 62 14 9z" data-fill="#AA5A1E" style="transition: all 0.988062s cubic-bezier(0.47, -0.6, 0.52, 1.65) 0s; transform: none;"></path><path fill="#8F512F" d="m251 52-28 39 153 57z" data-fill="#8F512F" style="transition: all 0.19389s cubic-bezier(0.47, -0.6, 0.52, 1.65) 0s; transform: none;"></path><path fill="#2E1C13" d="m159 86 5 8 7-9z" data-fill="#2E1C13" style="transition: all 2.75743s cubic-bezier(0.47, -0.6, 0.52, 1.65) 0s; transform: none;"></path><path fill="#000" d="m115 153-4 6 6 6-2-12Z" data-fill="#000" style="transition: all 1.7108s cubic-bezier(0.47, -0.6, 0.52, 1.65) 0s; transform: none;"></path><path fill="#954512" d="m694 335-59 19-44-32 4-32z" data-fill="#954512" style="transition: all 1.11662s cubic-bezier(0.47, -0.6, 0.52, 1.65) 0s; transform: none;"></path><path fill="#6A3212" d="m714 224 53 39-52-52z" data-fill="#6A3212" style="transition: all 1.67207s cubic-bezier(0.47, -0.6, 0.52, 1.65) 0s; transform: none;"></path><path fill="#844415" d="m715 211 52 52-3-36z" data-fill="#844415" style="transition: all 2.70376s cubic-bezier(0.47, -0.6, 0.52, 1.65) 0s; transform: none;"></path><path fill="#A35D27" d="m701 196 63 31-49-16z" data-fill="#A35D27" style="transition: all 2.30805s cubic-bezier(0.47, -0.6, 0.52, 1.65) 0s; transform: none;"></path><path fill="#844415" d="m767 263 42 20 30-13z" data-fill="#844415" style="transition: all 2.70941s cubic-bezier(0.47, -0.6, 0.52, 1.65) 0s; transform: none;"></path><path fill="#954512" d="m767 263 72 7-4-28z" data-fill="#954512" style="transition: all 0.380135s cubic-bezier(0.47, -0.6, 0.52, 1.65) 0s; transform: none;"></path><path fill="#7C4121" d="m764 227 3 36 68-21z" data-fill="#7C4121" style="transition: all 1.3449s cubic-bezier(0.47, -0.6, 0.52, 1.65) 0s; transform: none;"></path><path fill="#BA6B32" d="m839 270 44-43-48 15z" data-fill="#BA6B32" style="transition: all 1.91655s cubic-bezier(0.47, -0.6, 0.52, 1.65) 0s; transform: none;"></path><path fill="#482A17" d="m694 335 49 36h-35z" data-fill="#482A17" style="transition: all 0.650183s cubic-bezier(0.47, -0.6, 0.52, 1.65) 0s; transform: none;"></path><path fill="#6A3212" d="m708 371 43 38-8-38z" data-fill="#6A3212" style="transition: all 1.26418s cubic-bezier(0.47, -0.6, 0.52, 1.65) 0s; transform: none;"></path><path fill="#AA5A1E" d="M743 371h29l-21 38zM772 371l28 45-30-12z" data-fill="#AA5A1E" style="transition: all 1.61655s cubic-bezier(0.47, -0.6, 0.52, 1.65) 0s; transform: none;"></path><path fill="#844415" d="m770 404-19 5 21-38zM770 404l36 55-6-43z" data-fill="#844415" style="transition: all 2.03284s cubic-bezier(0.47, -0.6, 0.52, 1.65) 0s; transform: none;"></path><path fill="#B67247" d="m800 416 19 27-13 16z" data-fill="#B67247" style="transition: all 0.127643s cubic-bezier(0.47, -0.6, 0.52, 1.65) 0s; transform: none;"></path><path fill="#C9804C" d="m819 443 18 12-31 4 13-16Z" data-fill="#C9804C" style="transition: all 1.42189s cubic-bezier(0.47, -0.6, 0.52, 1.65) 0s; transform: none;"></path><path fill="#A49277" d="m846 437-14 29 26 5v-32z" data-fill="#A49277" style="transition: all 2.39705s cubic-bezier(0.47, -0.6, 0.52, 1.65) 0s; transform: none;"></path><path fill="#B26C3D" d="m823 446 23-9-9 18zM816 458l16 8 5-11z" data-fill="#B26C3D" style="transition: all 1.74051s cubic-bezier(0.47, -0.6, 0.52, 1.65) 0s; transform: none;"></path><path fill="#C78047" d="m251 361-53 48 61-26z" data-fill="#C78047" style="transition: all 0.464915s cubic-bezier(0.47, -0.6, 0.52, 1.65) 0s; transform: none;"></path><path fill="#B67247" d="m259 383-88 75 27-49z" data-fill="#B67247" style="transition: all 2.85054s cubic-bezier(0.47, -0.6, 0.52, 1.65) 0s; transform: none;"></path><path fill="#CD8344" d="m172 458-53 7 79-57" data-fill="#CD8344" style="transition: all 0.0177901s cubic-bezier(0.47, -0.6, 0.52, 1.65) 0s; transform: none;"></path><path fill="#AD9774" d="m140 487-8 3-30-12 17-14z" data-fill="#AD9774" style="transition: all 2.77136s cubic-bezier(0.47, -0.6, 0.52, 1.65) 0s; transform: none;"></path><path fill="#683C16" d="m171 458-29 16-23-10z" data-fill="#683C16" style="transition: all 2.73282s cubic-bezier(0.47, -0.6, 0.52, 1.65) 0s; transform: none;"></path><path fill="#AA5A1E" d="m119 464 23 10-2 13z" data-fill="#AA5A1E" style="transition: all 2.81591s cubic-bezier(0.47, -0.6, 0.52, 1.65) 0s; transform: none;"></path><path fill="#2E1C13" d="m391 137 74 46-89-35z" data-fill="#2E1C13" style="transition: all 1.67436s cubic-bezier(0.47, -0.6, 0.52, 1.65) 0s; transform: none;"></path></svg>