<svg class="cps-animal cps-breath" xmlns="http://www.w3.org/2000/svg" viewBox="0 0 960 600" ><path fill="#5B768E" d="M253 368h14l-9-1-10-7-16 5-15-1-3-8-23 8-21 8h-21l-1-11-20 7-24 7-23-3 3-15-5 2-10 3-14-6 14-21 24-5 264-55 9-14 7-15-6-17-13-18-47-13-58-13-55-16-62-26-78-39 42 5 489 24 63 2h35l13 3 11 13-8 13-28 10h90l30 11 29 18 25 27v32l-16 20 5-8 11 5v27l-54 48-36 18-92 48-216 76-35 14-48-3 29-11 1-1 12-23 13-5 7-17 19-9 23-7-10 3 26-25 32-28 28-24-129 13-58-1-59 13h-12l-7-3 9-2-17 2z" data-fill="#5B768E" style="transition: all 0.2s cubic-bezier(0, 0, 0, 1) 0s; transform: none; filter: brightness(1);"></path><path fill="#E9BE32" d="m787 203 18 1 11 7 4 11-7 5-13 3-9-7-4-9z" data-fill="#E9BE32" style="transition: all 0.2s cubic-bezier(0, 0, 0, 1) 0s; transform: none; filter: brightness(1);"></path><path fill="#221D23" d="m797 205-6 2v9l6 8h8l5-6-2-7-5-4z" data-fill="#221D23" style="transition: all 0.2s cubic-bezier(0, 0, 0, 1) 0s; transform: none; filter: brightness(1);"></path><path fill="#2C4859" d="m805 204-14-19-30-11 26 29z" data-fill="#2C4859" style="transition: all 0.2s cubic-bezier(0, 0, 0, 1) 0s; transform: none; filter: brightness(1);"></path><path fill="#1F3643" d="m791 185 29 18v19l-4-11-11-7z" data-fill="#1F3643" style="transition: all 0.2s cubic-bezier(0, 0, 0, 1) 0s; transform: none; filter: brightness(1);"></path><path fill="#6C899C" d="m820 203 25 27-25-6z" data-fill="#6C899C" style="transition: all 0.2s cubic-bezier(0, 0, 0, 1) 0s; transform: none; filter: brightness(1);"></path><path fill="#FFDA61" d="M845 230v14l-10-17z" data-fill="#FFDA61" style="transition: all 0.2s cubic-bezier(0, 0, 0, 1) 0s; transform: none; filter: brightness(1);"></path><path fill="#FFC300" d="m845 244-4 12h-12z" data-fill="#FFC300" style="transition: all 0.2s cubic-bezier(0, 0, 0, 1) 0s; transform: none; filter: brightness(1);"></path><path fill="#3A4248" d="M845 244v18l-16 20 12-26z" data-fill="#3A4248" style="transition: all 0.2s cubic-bezier(0, 0, 0, 1) 0s; transform: none; filter: brightness(1);"></path><path fill="#5B768E" d="M820 224v12l15-9z" data-fill="#5B768E" style="transition: all 0.2s cubic-bezier(0, 0, 0, 1) 0s; transform: none; filter: brightness(1);"></path><path fill="#E9BE32" d="m835 227-15 9 25 8z" data-fill="#E9BE32" style="transition: all 0.2s cubic-bezier(0, 0, 0, 1) 0s; transform: none; filter: brightness(1);"></path><path fill="#6C899C" d="m820 236-33 5 28 8z" data-fill="#6C899C" style="transition: all 0.2s cubic-bezier(0, 0, 0, 1) 0s; transform: none; filter: brightness(1);"></path><path fill="#E9A832" d="m815 249 30-5-25-8z" data-fill="#E9A832" style="transition: all 0.2s cubic-bezier(0, 0, 0, 1) 0s; transform: none; filter: brightness(1);"></path><path fill="#E9BE32" d="m815 249 14 7 16-12z" data-fill="#E9BE32" style="transition: all 0.2s cubic-bezier(0, 0, 0, 1) 0s; transform: none; filter: brightness(1);"></path><path fill="#222021" d="M829 256v26l12-26z" data-fill="#222021" style="transition: all 0.2s cubic-bezier(0, 0, 0, 1) 0s; transform: none; filter: brightness(1);"></path><path fill="#E6990E" d="m815 249 14 26v-19z" data-fill="#E6990E" style="transition: all 0.2s cubic-bezier(0, 0, 0, 1) 0s; transform: none; filter: brightness(1);"></path><path fill="#CFDBEB" d="m815 249-54 15 68 11z" data-fill="#CFDBEB" style="transition: all 0.2s cubic-bezier(0, 0, 0, 1) 0s; transform: none; filter: brightness(1);"></path><path fill="#E5EAF0" d="m829 275-84 31 16-42z" data-fill="#E5EAF0" style="transition: all 0.2s cubic-bezier(0, 0, 0, 1) 0s; transform: none; filter: brightness(1);"></path><path fill="#2C4859" d="m834 274 11 5v27z" data-fill="#2C4859" style="transition: all 0.2s cubic-bezier(0, 0, 0, 1) 0s; transform: none; filter: brightness(1);"></path><path fill="#5A6E8C" d="m845 306-54 48 38-72 5-8z" data-fill="#5A6E8C" style="transition: all 0.2s cubic-bezier(0, 0, 0, 1) 0s; transform: none; filter: brightness(1);"></path><path fill="#424E64" d="M829 275v7l-19 37-5-35z" data-fill="#424E64" style="transition: all 0.2s cubic-bezier(0, 0, 0, 1) 0s; transform: none; filter: brightness(1);"></path><path fill="#36596F" d="m745 306 65 13-5-35z" data-fill="#36596F" style="transition: all 0.2s cubic-bezier(0, 0, 0, 1) 0s; transform: none; filter: brightness(1);"></path><path fill="#495E7E" d="m745 306-70 30 80 36z" data-fill="#495E7E" style="transition: all 0.2s cubic-bezier(0, 0, 0, 1) 0s; transform: none; filter: brightness(1);"></path><path fill="#5B768E" d="m810 319-19 35-46-48z" data-fill="#5B768E" style="transition: all 0.2s cubic-bezier(0, 0, 0, 1) 0s; transform: none; filter: brightness(1);"></path><path fill="#5A6E8C" d="m791 354-36 18-10-66z" data-fill="#5A6E8C" style="transition: all 0.2s cubic-bezier(0, 0, 0, 1) 0s; transform: none; filter: brightness(1);"></path><path fill="#36596F" d="m755 372-92 48-216 76h-54l346-132z" data-fill="#36596F" style="transition: all 0.2s cubic-bezier(0, 0, 0, 1) 0s; transform: none; filter: brightness(1);"></path><path fill="#5B768E" d="M739 364 414 488l11-24 303-105z" data-fill="#5B768E" style="transition: all 0.2s cubic-bezier(0, 0, 0, 1) 0s; transform: none; filter: brightness(1);"></path><path fill="#6D8997" d="M728 359 435 461l10-20 271-87z" data-fill="#6D8997" style="transition: all 0.2s cubic-bezier(0, 0, 0, 1) 0s; transform: none; filter: brightness(1);"></path><path fill="#94A4BD" d="m716 354-234 75 26-24 196-56z" data-fill="#94A4BD" style="transition: all 0.2s cubic-bezier(0, 0, 0, 1) 0s; transform: none; filter: brightness(1);"></path><path fill="#8396B1" d="m704 349-196 56 32-25 155-35z" data-fill="#8396B1" style="transition: all 0.2s cubic-bezier(0, 0, 0, 1) 0s; transform: none; filter: brightness(1);"></path><path fill="#5B768E" d="m695 345-155 35 20-21 115-23z" data-fill="#5B768E" style="transition: all 0.2s cubic-bezier(0, 0, 0, 1) 0s; transform: none; filter: brightness(1);"></path><path fill="#C0D1E2" d="m761 264-23 5v-42z" data-fill="#C0D1E2" style="transition: all 0.2s cubic-bezier(0, 0, 0, 1) 0s; transform: none; filter: brightness(1);"></path><path fill="#5B768E" d="m815 249-77-22 23 37z" data-fill="#5B768E" style="transition: all 0.2s cubic-bezier(0, 0, 0, 1) 0s; transform: none; filter: brightness(1);"></path><path fill="#6C899C" d="m820 222-7 5 7 9z" data-fill="#6C899C" style="transition: all 0.2s cubic-bezier(0, 0, 0, 1) 0s; transform: none; filter: brightness(1);"></path><path fill="#8396B1" d="m813 227 7 9-33 5 14-11z" data-fill="#8396B1" style="transition: all 0.2s cubic-bezier(0, 0, 0, 1) 0s; transform: none; filter: brightness(1);"></path><path fill="#6C899C" d="m801 230-14 11-49-14 53-3z" data-fill="#6C899C" style="transition: all 0.2s cubic-bezier(0, 0, 0, 1) 0s; transform: none; filter: brightness(1);"></path><path fill="#2C4859" d="m791 224-4-10-49 13z" data-fill="#2C4859" style="transition: all 0.2s cubic-bezier(0, 0, 0, 1) 0s; transform: none; filter: brightness(1);"></path><path fill="#49637B" d="M787 203v11l-49 13z" data-fill="#49637B" style="transition: all 0.2s cubic-bezier(0, 0, 0, 1) 0s; transform: none; filter: brightness(1);"></path><path fill="#1F3643" d="m787 203-26-29-17 21z" data-fill="#1F3643" style="transition: all 0.2s cubic-bezier(0, 0, 0, 1) 0s; transform: none; filter: brightness(1);"></path><path fill="#2C4859" d="m787 203-49 24 6-32z" data-fill="#2C4859" style="transition: all 0.2s cubic-bezier(0, 0, 0, 1) 0s; transform: none; filter: brightness(1);"></path><path fill="#4D6A85" d="M761 174h-90l73 21z" data-fill="#4D6A85" style="transition: all 0.2s cubic-bezier(0, 0, 0, 1) 0s; transform: none; filter: brightness(1);"></path><path fill="#C0D1E2" d="m671 174 67 53 6-32z" data-fill="#C0D1E2" style="transition: all 0.2s cubic-bezier(0, 0, 0, 1) 0s; transform: none; filter: brightness(1);"></path><path fill="#CFDBEB" d="m761 264-23 5 7 37z" data-fill="#CFDBEB" style="transition: all 0.2s cubic-bezier(0, 0, 0, 1) 0s; transform: none; filter: brightness(1);"></path><path fill="#6C899C" d="m671 174-1 68 68-15z" data-fill="#6C899C" style="transition: all 0.2s cubic-bezier(0, 0, 0, 1) 0s; transform: none; filter: brightness(1);"></path><path fill="#A1B6CE" d="M738 227v42l-68-27z" data-fill="#A1B6CE" style="transition: all 0.2s cubic-bezier(0, 0, 0, 1) 0s; transform: none; filter: brightness(1);"></path><path fill="#94A4BD" d="m738 269-63 67-5-94z" data-fill="#94A4BD" style="transition: all 0.2s cubic-bezier(0, 0, 0, 1) 0s; transform: none; filter: brightness(1);"></path><path fill="#C0D1E2" d="m738 269-63 67 70-30z" data-fill="#C0D1E2" style="transition: all 0.2s cubic-bezier(0, 0, 0, 1) 0s; transform: none; filter: brightness(1);"></path><path fill="#8695AF" d="M670 242 560 359l115-23z" data-fill="#8695AF" style="transition: all 0.2s cubic-bezier(0, 0, 0, 1) 0s; transform: none; filter: brightness(1);"></path><path fill="#5A6E8C" d="m671 208-128 22 127 12z" data-fill="#5A6E8C" style="transition: all 0.2s cubic-bezier(0, 0, 0, 1) 0s; transform: none; filter: brightness(1);"></path><path fill="#5B768E" d="m670 242-127-12 17 129z" data-fill="#5B768E" style="transition: all 0.2s cubic-bezier(0, 0, 0, 1) 0s; transform: none; filter: brightness(1);"></path><path fill="#424766" d="m543 230-102 18 110 37z" data-fill="#424766" style="transition: all 0.2s cubic-bezier(0, 0, 0, 1) 0s; transform: none; filter: brightness(1);"></path><path fill="#6C899C" d="m551 285 9 74-72-41z" data-fill="#6C899C" style="transition: all 0.2s cubic-bezier(0, 0, 0, 1) 0s; transform: none; filter: brightness(1);"></path><path fill="#5E7789" d="m551 285-126 66 16-103z" data-fill="#5E7789" style="transition: all 0.2s cubic-bezier(0, 0, 0, 1) 0s; transform: none; filter: brightness(1);"></path><path fill="#546A80" d="m441 248-74 34 58 69z" data-fill="#546A80" style="transition: all 0.2s cubic-bezier(0, 0, 0, 1) 0s; transform: none; filter: brightness(1);"></path><path fill="#A1B6CE" d="m560 359-135-8 63-33z" data-fill="#A1B6CE" style="transition: all 0.2s cubic-bezier(0, 0, 0, 1) 0s; transform: none; filter: brightness(1);"></path><path fill="#94A4BD" d="m560 359-145 14 10-22z" data-fill="#94A4BD" style="transition: all 0.2s cubic-bezier(0, 0, 0, 1) 0s; transform: none; filter: brightness(1);"></path><path fill="#8396B1" d="m415 373-71-1 81-21z" data-fill="#8396B1" style="transition: all 0.2s cubic-bezier(0, 0, 0, 1) 0s; transform: none; filter: brightness(1);"></path><path fill="#1C2B38" d="m441 248-70 24-4 10z" data-fill="#1C2B38" style="transition: all 0.2s cubic-bezier(0, 0, 0, 1) 0s; transform: none; filter: brightness(1);"></path><path fill="#263749" d="M371 272 93 330l-14 29 288-77z" data-fill="#263749" style="transition: all 0.2s cubic-bezier(0, 0, 0, 1) 0s; transform: none; filter: brightness(1);"></path><path fill="#3C6277" d="m364 294-236 74-32-14 271-72z" data-fill="#3C6277" style="transition: all 0.2s cubic-bezier(0, 0, 0, 1) 0s; transform: none; filter: brightness(1);"></path><path fill="#94A4BD" d="m156 359 35 5 171-61 2-9z" data-fill="#94A4BD" style="transition: all 0.2s cubic-bezier(0, 0, 0, 1) 0s; transform: none; filter: brightness(1);"></path><path fill="#647A96" d="m357 322-102 37-37-4 144-52z" data-fill="#647A96" style="transition: all 0.2s cubic-bezier(0, 0, 0, 1) 0s; transform: none; filter: brightness(1);"></path><path fill="#A1B6CE" d="m390 309-46 63 81-21z" data-fill="#A1B6CE" style="transition: all 0.2s cubic-bezier(0, 0, 0, 1) 0s; transform: none; filter: brightness(1);"></path><path fill="#8695AF" d="m367 282-23 90 46-63z" data-fill="#8695AF" style="transition: all 0.2s cubic-bezier(0, 0, 0, 1) 0s; transform: none; filter: brightness(1);"></path><path fill="#36596F" d="m671 174-128 56 128-22z" data-fill="#36596F" style="transition: all 0.2s cubic-bezier(0, 0, 0, 1) 0s; transform: none; filter: brightness(1);"></path><path fill="#2A3D52" d="M671 174H557l-14 56z" data-fill="#2A3D52" style="transition: all 0.2s cubic-bezier(0, 0, 0, 1) 0s; transform: none; filter: brightness(1);"></path><path fill="#263749" d="m441 248 39-21-103 33-6 12z" data-fill="#263749" style="transition: all 0.2s cubic-bezier(0, 0, 0, 1) 0s; transform: none; filter: brightness(1);"></path><path fill="#1F3043" d="m441 248 86-46 16 28z" data-fill="#1F3043" style="transition: all 0.2s cubic-bezier(0, 0, 0, 1) 0s; transform: none; filter: brightness(1);"></path><path fill="#5A6E8C" d="m671 174 28-10-35-10z" data-fill="#5A6E8C" style="transition: all 0.2s cubic-bezier(0, 0, 0, 1) 0s; transform: none; filter: brightness(1);"></path><path fill="#2C4859" d="m664 154 35 10-16-29z" data-fill="#2C4859" style="transition: all 0.2s cubic-bezier(0, 0, 0, 1) 0s; transform: none; filter: brightness(1);"></path><path fill="#2C4159" d="m699 164 8-13-11-13-13-3z" data-fill="#2C4159" style="transition: all 0.2s cubic-bezier(0, 0, 0, 1) 0s; transform: none; filter: brightness(1);"></path><path fill="#424E64" d="M683 135h-35l16 19z" data-fill="#424E64" style="transition: all 0.2s cubic-bezier(0, 0, 0, 1) 0s; transform: none; filter: brightness(1);"></path><path fill="#36596F" d="m648 135-63-2 44 41z" data-fill="#36596F" style="transition: all 0.2s cubic-bezier(0, 0, 0, 1) 0s; transform: none; filter: brightness(1);"></path><path fill="#446078" d="m648 135-19 39h26z" data-fill="#446078" style="transition: all 0.2s cubic-bezier(0, 0, 0, 1) 0s; transform: none; filter: brightness(1);"></path><path fill="#5A6E8C" d="m664 154-9 20-7-39z" data-fill="#5A6E8C" style="transition: all 0.2s cubic-bezier(0, 0, 0, 1) 0s; transform: none; filter: brightness(1);"></path><path fill="#4D6A85" d="m664 154 7 20h-16z" data-fill="#4D6A85" style="transition: all 0.2s cubic-bezier(0, 0, 0, 1) 0s; transform: none; filter: brightness(1);"></path><path fill="#4D5E79" d="m585 133-28 41h72z" data-fill="#4D5E79" style="transition: all 0.2s cubic-bezier(0, 0, 0, 1) 0s; transform: none; filter: brightness(1);"></path><path fill="#1C2B38" d="m557 174-30 28 16 28z" data-fill="#1C2B38" style="transition: all 0.2s cubic-bezier(0, 0, 0, 1) 0s; transform: none; filter: brightness(1);"></path><path fill="#36596F" d="M585 133 96 109l64 34h418z" data-fill="#36596F" style="transition: all 0.2s cubic-bezier(0, 0, 0, 1) 0s; transform: none; filter: brightness(1);"></path><path fill="#8396B1" d="m571 155-354 13-57-25h418z" data-fill="#8396B1" style="transition: all 0.2s cubic-bezier(0, 0, 0, 1) 0s; transform: none; filter: brightness(1);"></path><path fill="#94A4BD" d="m562 168-289 15-56-15 354-13z" data-fill="#94A4BD" style="transition: all 0.2s cubic-bezier(0, 0, 0, 1) 0s; transform: none; filter: brightness(1);"></path><path fill="#5B768E" d="m557 174-220 21-64-12 289-15z" data-fill="#5B768E" style="transition: all 0.2s cubic-bezier(0, 0, 0, 1) 0s; transform: none; filter: brightness(1);"></path><path fill="#36596F" d="m538 191-161 17-40-13 220-21z" data-fill="#36596F" style="transition: all 0.2s cubic-bezier(0, 0, 0, 1) 0s; transform: none; filter: brightness(1);"></path><path fill="#2C4859" d="m527 202-142 25-8-19 161-17z" data-fill="#2C4859" style="transition: all 0.2s cubic-bezier(0, 0, 0, 1) 0s; transform: none; filter: brightness(1);"></path><path fill="#1F3643" d="m527 202-142 25 1 16 118-29z" data-fill="#1F3643" style="transition: all 0.2s cubic-bezier(0, 0, 0, 1) 0s; transform: none; filter: brightness(1);"></path><path fill="#202F3B" d="m480 227-103 33 9-17 118-29z" data-fill="#202F3B" style="transition: all 0.2s cubic-bezier(0, 0, 0, 1) 0s; transform: none; filter: brightness(1);"></path><path fill="#596278" d="m255 359 44 8 50-14 1-5 7-26-102 37Z" data-fill="#596278" style="transition: all 0.2s cubic-bezier(0, 0, 0, 1) 0s; transform: none; filter: brightness(1);"></path><path fill="#FFF" d="m791 207 3 6 5-2 2-4-4-2z" data-fill="#FFF" style="transition: all 0.2s cubic-bezier(0, 0, 0, 1) 0s; transform: none; filter: brightness(1);"></path><path fill="#FFC300" d="m384 346-26 26-87 10-5-14 80-7 21-20z" data-fill="#FFC300" style="transition: all 0.2s cubic-bezier(0, 0, 0, 1) 0s; transform: none; filter: brightness(1);"></path><path fill="#E9A832" d="m356 351-73 5 8 11 55-6z" data-fill="#E9A832" style="transition: all 0.2s cubic-bezier(0, 0, 0, 1) 0s; transform: none; filter: brightness(1);"></path><path fill="#000" d="m291 367-20-11h12zM271 382l-18-14h13z" data-fill="#000" style="transition: all 0.2s cubic-bezier(0, 0, 0, 1) 0s; transform: none; filter: brightness(1);"></path><path fill="#FFDA61" d="m267 368 91 4-87 10z" data-fill="#FFDA61" style="transition: all 0.2s cubic-bezier(0, 0, 0, 1) 0s; transform: none; filter: brightness(1);"></path><path fill="#E38700" d="m358 372-60 13-10-5 70-8Z" data-fill="#E38700" style="transition: all 0.2s cubic-bezier(0, 0, 0, 1) 0s; transform: none; filter: brightness(1);"></path><path fill="#000" d="M298 385h-12l-7-3 9-2z" data-fill="#000" style="transition: all 0.2s cubic-bezier(0, 0, 0, 1) 0s; transform: none; filter: brightness(1);"></path><path fill="#262424" d="M160 143h-28l-78-39 42 5z" data-fill="#262424" style="transition: all 0.2s cubic-bezier(0, 0, 0, 1) 0s; transform: none; filter: brightness(1);"></path><path fill="#3A4248" d="m217 168-23 1-62-26h28z" data-fill="#3A4248" style="transition: all 0.2s cubic-bezier(0, 0, 0, 1) 0s; transform: none; filter: brightness(1);"></path><path fill="#262424" d="m217 168-23 1 55 16 26-2z" data-fill="#262424" style="transition: all 0.2s cubic-bezier(0, 0, 0, 1) 0s; transform: none; filter: brightness(1);"></path><path fill="#3A4248" d="m337 195-30 3-58-13 26-2" data-fill="#3A4248" style="transition: all 0.2s cubic-bezier(0, 0, 0, 1) 0s; transform: none; filter: brightness(1);"></path><path fill="#424766" d="m337 195-30 3 47 13 23-3z" data-fill="#424766" style="transition: all 0.2s cubic-bezier(0, 0, 0, 1) 0s; transform: none; filter: brightness(1);"></path><path fill="#1C1C1C" d="m377 208-23 3 13 18 18-2z" data-fill="#1C1C1C" style="transition: all 0.2s cubic-bezier(0, 0, 0, 1) 0s; transform: none; filter: brightness(1);"></path><path fill="#424766" d="m385 227-18 2 6 17 13-3z" data-fill="#424766" style="transition: all 0.2s cubic-bezier(0, 0, 0, 1) 0s; transform: none; filter: brightness(1);"></path><path fill="#262424" d="m386 243-13 3-7 15 11-1z" data-fill="#262424" style="transition: all 0.2s cubic-bezier(0, 0, 0, 1) 0s; transform: none; filter: brightness(1);"></path><path fill="#3A4248" d="m377 260-11 1-9 14 14-3z" data-fill="#3A4248" style="transition: all 0.2s cubic-bezier(0, 0, 0, 1) 0s; transform: none; filter: brightness(1);"></path><path fill="#1C1C1C" d="m560 359-16 1-28 24 24-4z" data-fill="#1C1C1C" style="transition: all 0.2s cubic-bezier(0, 0, 0, 1) 0s; transform: none; filter: brightness(1);"></path><path fill="#4F5575" d="m540 380-24 4-32 28 24-7z" data-fill="#4F5575" style="transition: all 0.2s cubic-bezier(0, 0, 0, 1) 0s; transform: none; filter: brightness(1);"></path><path fill="#1C1C1C" d="m508 405-24 7-26 25 24-8z" data-fill="#1C1C1C" style="transition: all 0.2s cubic-bezier(0, 0, 0, 1) 0s; transform: none; filter: brightness(1);"></path><path fill="#262424" d="m445 441-19 9-7 17 16-6z" data-fill="#262424" style="transition: all 0.2s cubic-bezier(0, 0, 0, 1) 0s; transform: none; filter: brightness(1);"></path><path fill="#424766" d="m425 464-19 8-12 24 20-8z" data-fill="#424766" style="transition: all 0.2s cubic-bezier(0, 0, 0, 1) 0s; transform: none; filter: brightness(1);"></path><path fill="#1C1C1C" d="m447 496-35 14-48-3 29-11zM93 330l-24 5-14 21 14 6 10-3z" data-fill="#1C1C1C" style="transition: all 0.2s cubic-bezier(0, 0, 0, 1) 0s; transform: none; filter: brightness(1);"></path><path fill="#424766" d="m96 354-12 3-3 15 23 3 24-7z" data-fill="#424766" style="transition: all 0.2s cubic-bezier(0, 0, 0, 1) 0s; transform: none; filter: brightness(1);"></path><path fill="#1C1C1C" d="m191 364-21 8h-21l-1-11 8-2zM255 359l-23 6-15-1-3-8 4-1z" data-fill="#1C1C1C" style="transition: all 0.2s cubic-bezier(0, 0, 0, 1) 0s; transform: none; filter: brightness(1);"></path><path fill="#262424" d="m299 367-19 3-22-3-10-7 7-1z" data-fill="#262424" style="transition: all 0.2s cubic-bezier(0, 0, 0, 1) 0s; transform: none; filter: brightness(1);"></path></svg>