<svg class="cps-animal" xmlns="http://www.w3.org/2000/svg" viewBox="0 0 960 600" ><path fill="#C88455" d="m772 105 43 32-8 22 16 24 17 15 18 18-8 14-3 20-6 3 2 10-6 4-18-4-6-8-15 32-24 7v1l9 34-11 45-7 2 58 16 57 31 22 2 11 8-3 17-26 2-7-5-9 3-21-16-36-13-43-10 36 12 47 41 26 2 10 14-10 15-15-3-51-20-7-13-26-14-51-20-27 3-20-17-63-27-42 11-49-7-98-35-133 5-35 7-62 14-31 28v4l-5 19 11 11-6 19h-18l-16-30v-30l39-55-33 16-24 34-16 20-19 3-6-18 20-47 32-29 41-30 32 9 48-20 53-61 6-9-62-11-39 3-66 25-49-3-16-5-27-12 3-19 17-3 18 17 9 8 32 1 41-18 41-17h71l44 9 45 10 123 25 84-10 63-34 40-52 64-22z" data-fill="#C88455" style="transition: all 2.35523s cubic-bezier(0.47, -0.6, 0.52, 1.65) 0s; transform: none;"></path><path fill="#D79D6A" d="m837 267 6-4-2-10z" data-fill="#D79D6A" style="transition: all 1.89733s cubic-bezier(0.47, -0.6, 0.52, 1.65) 0s; transform: none;"></path><path fill="#F7BB8C" d="m813 255 6 8 18 4 4-14 6-3z" data-fill="#F7BB8C" style="transition: all 2.24166s cubic-bezier(0.47, -0.6, 0.52, 1.65) 0s; transform: none;"></path><path fill="#62482C" d="m825 253 9 3 13-6z" data-fill="#62482C" style="transition: all 2.69962s cubic-bezier(0.47, -0.6, 0.52, 1.65) 0s; transform: none;"></path><path fill="#FFCA9D" d="m813 255 34-5-24-20z" data-fill="#FFCA9D" style="transition: all 1.09741s cubic-bezier(0.47, -0.6, 0.52, 1.65) 0s; transform: none;"></path><path fill="#7A5332" d="m850 230-10-12 7 32z" data-fill="#7A5332" style="transition: all 2.93508s cubic-bezier(0.47, -0.6, 0.52, 1.65) 0s; transform: none;"></path><path fill="#62482C" d="m840 218 10 12 8-14z" data-fill="#62482C" style="transition: all 1.78376s cubic-bezier(0.47, -0.6, 0.52, 1.65) 0s; transform: none;"></path><path fill="#9F8069" d="m840 218 18-2-18-18z" data-fill="#9F8069" style="transition: all 1.53064s cubic-bezier(0.47, -0.6, 0.52, 1.65) 0s; transform: none;"></path><path fill="#CF864A" d="m813 255 10-25-30 2z" data-fill="#CF864A" style="transition: all 0.899142s cubic-bezier(0.47, -0.6, 0.52, 1.65) 0s; transform: none;"></path><path fill="#D79D6A" d="m823 230 24 20-7-32z" data-fill="#D79D6A" style="transition: all 2.92868s cubic-bezier(0.47, -0.6, 0.52, 1.65) 0s; transform: none;"></path><path fill="#F6C0A0" d="m823 195 17 23v-20l-17-15-16-24z" data-fill="#F6C0A0" style="transition: all 1.20015s cubic-bezier(0.47, -0.6, 0.52, 1.65) 0s; transform: none;"></path><path fill="#EAB181" d="m823 230 17-12-17-23z" data-fill="#EAB181" style="transition: all 2.38227s cubic-bezier(0.47, -0.6, 0.52, 1.65) 0s; transform: none;"></path><path fill="#181818" d="m801 190 12 6-2-9-11-4z" data-fill="#181818" style="transition: all 0.525628s cubic-bezier(0.47, -0.6, 0.52, 1.65) 0s; transform: none;"></path><path fill="#FDBD84" d="m813 196-20 7v29l30-2v-35z" data-fill="#FDBD84" style="transition: all 1.81052s cubic-bezier(0.47, -0.6, 0.52, 1.65) 0s; transform: none;"></path><path fill="#D5A178" d="m811 187 2 9 10-1-16-36z" data-fill="#D5A178" style="transition: all 2.22095s cubic-bezier(0.47, -0.6, 0.52, 1.65) 0s; transform: none;"></path><path fill="#E4AC6B" d="m794 173 6 10 11 4-4-28z" data-fill="#E4AC6B" style="transition: all 2.03917s cubic-bezier(0.47, -0.6, 0.52, 1.65) 0s; transform: none;"></path><path fill="#EEA46B" d="m793 203 20-7-12-6-1-7-6-10z" data-fill="#EEA46B" style="transition: all 2.26394s cubic-bezier(0.47, -0.6, 0.52, 1.65) 0s; transform: none;"></path><path fill="#E9B386" d="m807 159 8-22-43-32z" data-fill="#E9B386" style="transition: all 2.76055s cubic-bezier(0.47, -0.6, 0.52, 1.65) 0s; transform: none;"></path><path fill="#CF995F" d="m742 105 65 54-35-54z" data-fill="#CF995F" style="transition: all 1.84296s cubic-bezier(0.47, -0.6, 0.52, 1.65) 0s; transform: none;"></path><path fill="#C99564" d="m763 163-21-58-64 22z" data-fill="#C99564" style="transition: all 0.210764s cubic-bezier(0.47, -0.6, 0.52, 1.65) 0s; transform: none;"></path><path fill="#A87E59" d="m763 163 44-4-65-54z" data-fill="#A87E59" style="transition: all 1.66746s cubic-bezier(0.47, -0.6, 0.52, 1.65) 0s; transform: none;"></path><path fill="#48341B" d="m638 179 26 26 14-78z" data-fill="#48341B" style="transition: all 1.20151s cubic-bezier(0.47, -0.6, 0.52, 1.65) 0s; transform: none;"></path><path fill="#694E34" d="m664 205 41-66-27-12z" data-fill="#694E34" style="transition: all 1.40419s cubic-bezier(0.47, -0.6, 0.52, 1.65) 0s; transform: none;"></path><path fill="#88603F" d="m664 205 99-10-58-56z" data-fill="#88603F" style="transition: all 1.65122s cubic-bezier(0.47, -0.6, 0.52, 1.65) 0s; transform: none;"></path><path fill="#E89E68" d="m763 195 31-22-31-10z" data-fill="#E89E68" style="transition: all 2.55644s cubic-bezier(0.47, -0.6, 0.52, 1.65) 0s; transform: none;"></path><path fill="#D0925B" d="m763 163 31 10 13-14z" data-fill="#D0925B" style="transition: all 1.2686s cubic-bezier(0.47, -0.6, 0.52, 1.65) 0s; transform: none;"></path><path d="m793 232 1-59-31 22z" fill="rgba(255,255,255,0)" style="transition: all 2.61504s cubic-bezier(0.47, -0.6, 0.52, 1.65) 0s; transform: none;"></path><path fill="#926035" d="m664 205 71 29 28-39z" data-fill="#926035" style="transition: all 2.09985s cubic-bezier(0.47, -0.6, 0.52, 1.65) 0s; transform: none;"></path><path fill="#BF7F48" d="m735 234 32 2-4-41z" data-fill="#BF7F48" style="transition: all 2.73333s cubic-bezier(0.47, -0.6, 0.52, 1.65) 0s; transform: none;"></path><path fill="#D89B5F" d="m767 236 26-4-30-37z" data-fill="#D89B5F" style="transition: all 1.86186s cubic-bezier(0.47, -0.6, 0.52, 1.65) 0s; transform: none;"></path><path fill="#AB6835" d="m767 236 7 59 19-63z" data-fill="#AB6835" style="transition: all 2.19752s cubic-bezier(0.47, -0.6, 0.52, 1.65) 0s; transform: none;"></path><path fill="#C2773D" d="m798 287 15-32-20-23z" data-fill="#C2773D" style="transition: all 0.537257s cubic-bezier(0.47, -0.6, 0.52, 1.65) 0s; transform: none;"></path><path fill="#A25F22" d="m774 294 24-7-5-55zM774 295l-7-59-32-2z" data-fill="#A25F22" style="transition: all 1.89147s cubic-bezier(0.47, -0.6, 0.52, 1.65) 0s; transform: none;"></path><path d="m706 259 29-25-71-29z" fill="rgba(255,255,255,0)" style="transition: all 1.10441s cubic-bezier(0.47, -0.6, 0.52, 1.65) 0s; transform: none;"></path><path fill="#905D31" d="m761 332 13-37-39-61z" data-fill="#905D31" style="transition: all 0.190576s cubic-bezier(0.47, -0.6, 0.52, 1.65) 0s; transform: none;"></path><path fill="#865527" d="m761 332 11 42 11-45-9-35z" data-fill="#865527" style="transition: all 2.57077s cubic-bezier(0.47, -0.6, 0.52, 1.65) 0s; transform: none;"></path><path fill="#62482C" d="m736 384 36-10-11-42z" data-fill="#62482C" style="transition: all 0.617007s cubic-bezier(0.47, -0.6, 0.52, 1.65) 0s; transform: none;"></path><path fill="#915C35" d="m706 259 55 73-26-98z" data-fill="#915C35" style="transition: all 1.73197s cubic-bezier(0.47, -0.6, 0.52, 1.65) 0s; transform: none;"></path><path fill="#614B31" d="M664 259h42l-42-54z" data-fill="#614B31" style="transition: all 1.54896s cubic-bezier(0.47, -0.6, 0.52, 1.65) 0s; transform: none;"></path><path fill="#503924" d="m664 259 21 70 21-70z" data-fill="#503924" style="transition: all 2.9569s cubic-bezier(0.47, -0.6, 0.52, 1.65) 0s; transform: none;"></path><path fill="#644A30" d="m684 329 77 3-55-73z" data-fill="#644A30" style="transition: all 2.08487s cubic-bezier(0.47, -0.6, 0.52, 1.65) 0s; transform: none;"></path><path fill="#5D3A21" d="m680 411 81-79-77-3z" data-fill="#5D3A21" style="transition: all 0.219079s cubic-bezier(0.47, -0.6, 0.52, 1.65) 0s; transform: none;"></path><path fill="#48341B" d="m736 384 25-52-81 79z" data-fill="#48341B" style="transition: all 2.38485s cubic-bezier(0.47, -0.6, 0.52, 1.65) 0s; transform: none;"></path><path fill="#62482C" d="m680 411 47 14 9-41z" data-fill="#62482C" style="transition: all 1.03068s cubic-bezier(0.47, -0.6, 0.52, 1.65) 0s; transform: none;"></path><path fill="#865527" d="m700 428 27-3-47-14z" data-fill="#865527" style="transition: all 1.81751s cubic-bezier(0.47, -0.6, 0.52, 1.65) 0s; transform: none;"></path><path fill="#AB774E" d="m617 384 63 27 5-82z" data-fill="#AB774E" style="transition: all 1.97946s cubic-bezier(0.47, -0.6, 0.52, 1.65) 0s; transform: none;"></path><path fill="#AA7752" d="m685 329-21-70-53 56z" data-fill="#AA7752" style="transition: all 1.94312s cubic-bezier(0.47, -0.6, 0.52, 1.65) 0s; transform: none;"></path><path fill="#D18951" d="m617 384 68-55-74-14z" data-fill="#D18951" style="transition: all 1.52448s cubic-bezier(0.47, -0.6, 0.52, 1.65) 0s; transform: none;"></path><path fill="#CD8756" d="m611 315 53-56-63-6z" data-fill="#CD8756" style="transition: all 1.96603s cubic-bezier(0.47, -0.6, 0.52, 1.65) 0s; transform: none;"></path><path fill="#CE8F63" d="m601 253 63 6-89-46z" data-fill="#CE8F63" style="transition: all 0.0404983s cubic-bezier(0.47, -0.6, 0.52, 1.65) 0s; transform: none;"></path><path fill="#654221" d="m575 213 89 46v-54z" data-fill="#654221" style="transition: all 1.89313s cubic-bezier(0.47, -0.6, 0.52, 1.65) 0s; transform: none;"></path><path fill="#5E4639" d="m575 213 89-8-26-26z" data-fill="#5E4639" style="transition: all 1.59618s cubic-bezier(0.47, -0.6, 0.52, 1.65) 0s; transform: none;"></path><path fill="#CF864A" d="m735 384-8 41 96-33-58-16z" data-fill="#CF864A" style="transition: all 2.24374s cubic-bezier(0.47, -0.6, 0.52, 1.65) 0s; transform: none;"></path><path fill="#90572F" d="M727 425h44l-4-14z" data-fill="#90572F" style="transition: all 2.81121s cubic-bezier(0.47, -0.6, 0.52, 1.65) 0s; transform: none;"></path><path fill="#AB703D" d="m771 425 33-2-37-12z" data-fill="#AB703D" style="transition: all 0.888984s cubic-bezier(0.47, -0.6, 0.52, 1.65) 0s; transform: none;"></path><path fill="#D49464" d="m767 411 44 10 12-29z" data-fill="#D49464" style="transition: all 0.960284s cubic-bezier(0.47, -0.6, 0.52, 1.65) 0s; transform: none;"></path><path fill="#D0804A" d="m811 421 36 13-24-42z" data-fill="#D0804A" style="transition: all 1.34634s cubic-bezier(0.47, -0.6, 0.52, 1.65) 0s; transform: none;"></path><path fill="#C59064" d="m847 434 33-11-57-31z" data-fill="#C59064" style="transition: all 1.9626s cubic-bezier(0.47, -0.6, 0.52, 1.65) 0s; transform: none;"></path><path fill="#D0804A" d="m847 434 21 16 12-27z" data-fill="#D0804A" style="transition: all 2.35552s cubic-bezier(0.47, -0.6, 0.52, 1.65) 0s; transform: none;"></path><path fill="#A25F22" d="m868 450 9-3 3-24z" data-fill="#A25F22" style="transition: all 0.910395s cubic-bezier(0.47, -0.6, 0.52, 1.65) 0s; transform: none;"></path><path fill="#D0804A" d="m884 452 26-2-33-3z" data-fill="#D0804A" style="transition: all 0.284401s cubic-bezier(0.47, -0.6, 0.52, 1.65) 0s; transform: none;"></path><path fill="#B88155" d="m877 447 25-22-22-2z" data-fill="#B88155" style="transition: all 1.47939s cubic-bezier(0.47, -0.6, 0.52, 1.65) 0s; transform: none;"></path><path fill="#E4CEAA" d="m910 450 3-17-11-8z" data-fill="#E4CEAA" style="transition: all 2.19042s cubic-bezier(0.47, -0.6, 0.52, 1.65) 0s; transform: none;"></path><path fill="#D49464" d="m877 447 33 3-8-25z" data-fill="#D49464" style="transition: all 1.90851s cubic-bezier(0.47, -0.6, 0.52, 1.65) 0s; transform: none;"></path><path fill="#AE6B3A" d="m727 425 51 20-7-20z" data-fill="#AE6B3A" style="transition: all 1.35288s cubic-bezier(0.47, -0.6, 0.52, 1.65) 0s; transform: none;"></path><path fill="#CF864A" d="m771 425 7 20 26 14v-36z" data-fill="#CF864A" style="transition: all 1.76767s cubic-bezier(0.47, -0.6, 0.52, 1.65) 0s; transform: none;"></path><path fill="#DDA679" d="m804 459 47 5-47-41z" data-fill="#DDA679" style="transition: all 0.708655s cubic-bezier(0.47, -0.6, 0.52, 1.65) 0s; transform: none;"></path><path fill="#E29352" d="m811 472 10-11-17-2z" data-fill="#E29352" style="transition: all 0.940873s cubic-bezier(0.47, -0.6, 0.52, 1.65) 0s; transform: none;"></path><path fill="#C07843" d="m811 472 51 20-11-28-30-3z" data-fill="#C07843" style="transition: all 0.920137s cubic-bezier(0.47, -0.6, 0.52, 1.65) 0s; transform: none;"></path><path fill="#E4CEAA" d="m887 480-10-14-26-2z" data-fill="#E4CEAA" style="transition: all 1.53102s cubic-bezier(0.47, -0.6, 0.52, 1.65) 0s; transform: none;"></path><path fill="#D49464" d="m862 492 15 3 10-15-36-16z" data-fill="#D49464" style="transition: all 0.822658s cubic-bezier(0.47, -0.6, 0.52, 1.65) 0s; transform: none;"></path><path fill="#845F47" d="m526 388 49 7 42-11-189-31z" data-fill="#845F47" style="transition: all 0.383101s cubic-bezier(0.47, -0.6, 0.52, 1.65) 0s; transform: none;"></path><path fill="#E19D6B" d="m295 358 133-5-53-49z" data-fill="#E19D6B" style="transition: all 0.515475s cubic-bezier(0.47, -0.6, 0.52, 1.65) 0s; transform: none;"></path><path fill="#C88455" d="m428 353 121-66-174 17z" data-fill="#C88455" style="transition: all 2.74977s cubic-bezier(0.47, -0.6, 0.52, 1.65) 0s; transform: none;"></path><path fill="#A46840" d="m617 384-6-69-62-28z" data-fill="#A46840" style="transition: all 1.71118s cubic-bezier(0.47, -0.6, 0.52, 1.65) 0s; transform: none;"></path><path fill="#B87744" d="m428 353 189 31-68-97z" data-fill="#B87744" style="transition: all 1.15847s cubic-bezier(0.47, -0.6, 0.52, 1.65) 0s; transform: none;"></path><path fill="#BB7A4A" d="m549 287 62 28-10-62z" data-fill="#BB7A4A" style="transition: all 1.81061s cubic-bezier(0.47, -0.6, 0.52, 1.65) 0s; transform: none;"></path><path fill="#DD9563" d="m549 287 52-34-110-30z" data-fill="#DD9563" style="transition: all 2.17446s cubic-bezier(0.47, -0.6, 0.52, 1.65) 0s; transform: none;"></path><path fill="#A46840" d="m491 223 110 30-26-40z" data-fill="#A46840" style="transition: all 2.83791s cubic-bezier(0.47, -0.6, 0.52, 1.65) 0s; transform: none;"></path><path fill="#9A653B" d="m333 267 158-44-123-25z" data-fill="#9A653B" style="transition: all 0.799433s cubic-bezier(0.47, -0.6, 0.52, 1.65) 0s; transform: none;"></path><path fill="#C88455" d="m333 267 42 37 45-62z" data-fill="#C88455" style="transition: all 0.174796s cubic-bezier(0.47, -0.6, 0.52, 1.65) 0s; transform: none;"></path><path fill="#D79D6A" d="m375 304 174-17-129-45z" data-fill="#D79D6A" style="transition: all 1.73392s cubic-bezier(0.47, -0.6, 0.52, 1.65) 0s; transform: none;"></path><path fill="#C88455" d="m420 242 129 45-58-64z" data-fill="#C88455" style="transition: all 2.38631s cubic-bezier(0.47, -0.6, 0.52, 1.65) 0s; transform: none;"></path><path fill="#92603B" d="m300 222 33 45 35-69z" data-fill="#92603B" style="transition: all 2.9087s cubic-bezier(0.47, -0.6, 0.52, 1.65) 0s; transform: none;"></path><path fill="#AE8056" d="m300 222 68-24-45-10z" data-fill="#AE8056" style="transition: all 2.61504s cubic-bezier(0.47, -0.6, 0.52, 1.65) 0s; transform: none;"></path><path fill="#C88455" d="m306 213 17-25-44-9zM208 179l36 23 35-23z" data-fill="#C88455" style="transition: all 2.45826s cubic-bezier(0.47, -0.6, 0.52, 1.65) 0s; transform: none;"></path><path fill="#9A653B" d="m244 202 62 11-27-34z" data-fill="#9A653B" style="transition: all 2.83138s cubic-bezier(0.47, -0.6, 0.52, 1.65) 0s; transform: none;"></path><path fill="#C88D5E" d="m205 205 39-3-36-23z" data-fill="#C88D5E" style="transition: all 0.91598s cubic-bezier(0.47, -0.6, 0.52, 1.65) 0s; transform: none;"></path><path fill="#DD9563" d="m167 196 38 9 3-26z" data-fill="#DD9563" style="transition: all 1.55648s cubic-bezier(0.47, -0.6, 0.52, 1.65) 0s; transform: none;"></path><path fill="#D0A57C" d="m139 230 66-25-38-9z" data-fill="#D0A57C" style="transition: all 2.91389s cubic-bezier(0.47, -0.6, 0.52, 1.65) 0s; transform: none;"></path><path fill="#DAA880" d="m126 214 13 16 28-34z" data-fill="#DAA880" style="transition: all 0.432688s cubic-bezier(0.47, -0.6, 0.52, 1.65) 0s; transform: none;"></path><path fill="#E8AC79" d="m90 227 49 3-13-16z" data-fill="#E8AC79" style="transition: all 1.84802s cubic-bezier(0.47, -0.6, 0.52, 1.65) 0s; transform: none;"></path><path fill="#E9B386" d="m90 227 36-13-32-1z" data-fill="#E9B386" style="transition: all 0.408454s cubic-bezier(0.47, -0.6, 0.52, 1.65) 0s; transform: none;"></path><path fill="#9A653B" d="m74 222 16 5 4-14-9-8z" data-fill="#9A653B" style="transition: all 1.24552s cubic-bezier(0.47, -0.6, 0.52, 1.65) 0s; transform: none;"></path><path fill="#88603F" d="m50 191 35 14-18-17z" data-fill="#88603F" style="transition: all 2.18977s cubic-bezier(0.47, -0.6, 0.52, 1.65) 0s; transform: none;"></path><path fill="#916951" d="m74 222 11-17-35-14z" data-fill="#916951" style="transition: all 2.39575s cubic-bezier(0.47, -0.6, 0.52, 1.65) 0s; transform: none;"></path><path fill="#5D3A21" d="m47 210 27 12-24-31z" data-fill="#5D3A21" style="transition: all 2.94816s cubic-bezier(0.47, -0.6, 0.52, 1.65) 0s; transform: none;"></path><path fill="#BE8358" d="m295 358 80-54-42-37z" data-fill="#BE8358" style="transition: all 0.248005s cubic-bezier(0.47, -0.6, 0.52, 1.65) 0s; transform: none;"></path><path fill="#7A5332" d="m247 283 86-16-33-45z" data-fill="#7A5332" style="transition: all 1.47317s cubic-bezier(0.47, -0.6, 0.52, 1.65) 0s; transform: none;"></path><path fill="#AE7C50" d="m247 283 48 75 38-91z" data-fill="#AE7C50" style="transition: all 1.30886s cubic-bezier(0.47, -0.6, 0.52, 1.65) 0s; transform: none;"></path><path fill="#CB9063" d="m260 365 35-7-48-75z" data-fill="#CB9063" style="transition: all 2.22557s cubic-bezier(0.47, -0.6, 0.52, 1.65) 0s; transform: none;"></path><path fill="#DE9B61" d="m172 345 88 20-13-82z" data-fill="#DE9B61" style="transition: all 1.50176s cubic-bezier(0.47, -0.6, 0.52, 1.65) 0s; transform: none;"></path><path fill="#8E5E3C" d="m199 303-27 42 75-62z" data-fill="#8E5E3C" style="transition: all 1.56115s cubic-bezier(0.47, -0.6, 0.52, 1.65) 0s; transform: none;"></path><path fill="#C88455" d="m126 324 73-21-32-9z" data-fill="#C88455" style="transition: all 0.109267s cubic-bezier(0.47, -0.6, 0.52, 1.65) 0s; transform: none;"></path><path fill="#A46840" d="m126 324 46 21 27-42z" data-fill="#A46840" style="transition: all 2.76322s cubic-bezier(0.47, -0.6, 0.52, 1.65) 0s; transform: none;"></path><path fill="#CB9063" d="m139 361 33-16-46-21z" data-fill="#CB9063" style="transition: all 0.621139s cubic-bezier(0.47, -0.6, 0.52, 1.65) 0s; transform: none;"></path><path fill="#E19D6B" d="m115 395 24-34-13-37z" data-fill="#E19D6B" style="transition: all 0.172549s cubic-bezier(0.47, -0.6, 0.52, 1.65) 0s; transform: none;"></path><path fill="#E8AC79" d="m115 395 11-71-32 29z" data-fill="#E8AC79" style="transition: all 2.30538s cubic-bezier(0.47, -0.6, 0.52, 1.65) 0s; transform: none;"></path><path fill="#F5CFAC" d="m74 400 6 18 19-3 16-20z" data-fill="#F5CFAC" style="transition: all 0.465259s cubic-bezier(0.47, -0.6, 0.52, 1.65) 0s; transform: none;"></path><path fill="#C88455" d="m74 400 41-5-21-42z" data-fill="#C88455" style="transition: all 1.36694s cubic-bezier(0.47, -0.6, 0.52, 1.65) 0s; transform: none;"></path><path fill="#CB9063" d="m198 379 62-14-58-13z" data-fill="#CB9063" style="transition: all 0.393167s cubic-bezier(0.47, -0.6, 0.52, 1.65) 0s; transform: none;"></path><path fill="#C88455" d="m167 407 31-28 4-27-30-7z" data-fill="#C88455" style="transition: all 0.940747s cubic-bezier(0.47, -0.6, 0.52, 1.65) 0s; transform: none;"></path><path fill="#E19D6B" d="m133 400 34 11 5-66z" data-fill="#E19D6B" style="transition: all 0.347604s cubic-bezier(0.47, -0.6, 0.52, 1.65) 0s; transform: none;"></path><path fill="#AE7C50" d="m162 430 5-19-34-11z" data-fill="#AE7C50" style="transition: all 0.0179099s cubic-bezier(0.47, -0.6, 0.52, 1.65) 0s; transform: none;"></path><path fill="#9A653B" d="M133 430h29l-29-30z" data-fill="#9A653B" style="transition: all 0.885288s cubic-bezier(0.47, -0.6, 0.52, 1.65) 0s; transform: none;"></path><path fill="#F5CFAC" d="M149 460h18l6-19-11-11z" data-fill="#F5CFAC" style="transition: all 0.947311s cubic-bezier(0.47, -0.6, 0.52, 1.65) 0s; transform: none;"></path><path fill="#E19D6B" d="m133 430 16 30 13-30z" data-fill="#E19D6B" style="transition: all 2.29929s cubic-bezier(0.47, -0.6, 0.52, 1.65) 0s; transform: none;"></path><path fill="#9F6A41" d="m763 163-58-24 58 57z" data-fill="#9F6A41" style="transition: all 2.86628s cubic-bezier(0.47, -0.6, 0.52, 1.65) 0s; transform: none;"></path><path fill="#F2B37C" d="m733 140 8 15 22 8-11-29-11-3z" data-fill="#F2B37C" style="transition: all 1.43373s cubic-bezier(0.47, -0.6, 0.52, 1.65) 0s; transform: none;"></path><path fill="#88603F" d="m733 140 8 15 22 8-15-24z" data-fill="#88603F" style="transition: all 0.188005s cubic-bezier(0.47, -0.6, 0.52, 1.65) 0s; transform: none;"></path><path fill="#7C512D" d="m736 234-72-29 42 54z" data-fill="#7C512D" style="transition: all 2.65482s cubic-bezier(0.47, -0.6, 0.52, 1.65) 0s; transform: none;"></path><path fill="#F4B27B" d="m794 173-31 22 31 37z" data-fill="#F4B27B" style="transition: all 1.10585s cubic-bezier(0.47, -0.6, 0.52, 1.65) 0s; transform: none;"></path></svg>