<svg class="cps-animal" xmlns="http://www.w3.org/2000/svg" viewBox="0 0 960 600" ><path fill="#487F8D" d="M309 297V150l76-74-4 68 103-26-38 58-32 78 134-21 214 85 58 37-31 3 102 58-153 5h13l19 15-5 70-100-90-86 22-200-6-81-36-147-42-16 16-3-49 73-44 116 41 4-13z" data-fill="#487F8D" style="transition: all 2.65004s cubic-bezier(0.47, -0.6, 0.52, 1.65) 0s; transform: none;"></path><path fill="#3B6469" d="m381 144 65 32-53 130-12-162Z" data-fill="#3B6469" style="transition: all 0.588s cubic-bezier(0.47, -0.6, 0.52, 1.65) 0s; transform: none;"></path><path fill="#0D3231" d="m484 118-103 26 65 32 38-58Z" data-fill="#0D3231" style="transition: all 1.11588s cubic-bezier(0.47, -0.6, 0.52, 1.65) 0s; transform: none;"></path><path fill="#6A7A80" d="m132 321 3 49 16-16z" data-fill="#6A7A80" style="transition: all 2.56589s cubic-bezier(0.47, -0.6, 0.52, 1.65) 0s; transform: none;"></path><path fill="#5B686A" d="m132 321 73 31-54 2z" data-fill="#5B686A" style="transition: all 0.43061s cubic-bezier(0.47, -0.6, 0.52, 1.65) 0s; transform: none;"></path><path fill="#76A69E" d="m132 321 73-22v-22z" data-fill="#76A69E" style="transition: all 0.491032s cubic-bezier(0.47, -0.6, 0.52, 1.65) 0s; transform: none;"></path><path fill="#3D96A6" d="m205 277 116 41-116-19z" data-fill="#3D96A6" style="transition: all 1.54815s cubic-bezier(0.47, -0.6, 0.52, 1.65) 0s; transform: none;"></path><path fill="#4F5B5D" d="M205 299v53l-73-31z" data-fill="#4F5B5D" style="transition: all 0.373772s cubic-bezier(0.47, -0.6, 0.52, 1.65) 0s; transform: none;"></path><path fill="#2F7B86" d="m321 318-14 41-102-60z" data-fill="#2F7B86" style="transition: all 1.17257s cubic-bezier(0.47, -0.6, 0.52, 1.65) 0s; transform: none;"></path><path fill="#294A4C" d="m307 359-102-7v-53z" data-fill="#294A4C" style="transition: all 1.12205s cubic-bezier(0.47, -0.6, 0.52, 1.65) 0s; transform: none;"></path><path fill="#D1CBB3" d="m307 359-9 37-147-42 54-2z" data-fill="#D1CBB3" style="transition: all 2.06362s cubic-bezier(0.47, -0.6, 0.52, 1.65) 0s; transform: none;"></path><path fill="#326776" d="m340 257-33 102 116-24z" data-fill="#326776" style="transition: all 1.21829s cubic-bezier(0.47, -0.6, 0.52, 1.65) 0s; transform: none;"></path><path fill="#528B98" d="m338 266 210-33-125 102z" data-fill="#528B98" style="transition: all 0.778373s cubic-bezier(0.47, -0.6, 0.52, 1.65) 0s; transform: none;"></path><path fill="#487F8D" d="m548 233 214 85-81 49z" data-fill="#487F8D" style="transition: all 0.140764s cubic-bezier(0.47, -0.6, 0.52, 1.65) 0s; transform: none;"></path><path fill="#39737B" d="M548 233v151l133-17-133-134Z" data-fill="#39737B" style="transition: all 2.06861s cubic-bezier(0.47, -0.6, 0.52, 1.65) 0s; transform: none;"></path><path fill="#44848E" d="M548 233v151l-125-49z" data-fill="#44848E" style="transition: all 1.10995s cubic-bezier(0.47, -0.6, 0.52, 1.65) 0s; transform: none;"></path><path fill="#AEB694" d="m548 384-169 48 200 6z" data-fill="#AEB694" style="transition: all 2.12788s cubic-bezier(0.47, -0.6, 0.52, 1.65) 0s; transform: none;"></path><path fill="#A3A58B" d="m579 438 102-71-133 17z" data-fill="#A3A58B" style="transition: all 1.92431s cubic-bezier(0.47, -0.6, 0.52, 1.65) 0s; transform: none;"></path><path fill="#ADB18E" d="m681 367-16 49-86 22z" data-fill="#ADB18E" style="transition: all 1.07427s cubic-bezier(0.47, -0.6, 0.52, 1.65) 0s; transform: none;"></path><path fill="#427379" d="m762 318 58 37-139 12" data-fill="#427379" style="transition: all 2.03918s cubic-bezier(0.47, -0.6, 0.52, 1.65) 0s; transform: none;"></path><path fill="#5F726E" d="m789 358 102 58-210-49z" data-fill="#5F726E" style="transition: all 1.74214s cubic-bezier(0.47, -0.6, 0.52, 1.65) 0s; transform: none;"></path><path fill="#B8C8BB" d="m891 416-153 5c-40-36-58-54-57-54l210 49Z" data-fill="#B8C8BB" style="transition: all 2.45508s cubic-bezier(0.47, -0.6, 0.52, 1.65) 0s; transform: none;"></path><path fill="#BEC4A0" d="m665 416 16-49 36 33-52 16Z" data-fill="#BEC4A0" style="transition: all 1.28002s cubic-bezier(0.47, -0.6, 0.52, 1.65) 0s; transform: none;"></path><path fill="#36626B" d="m665 416 100 90-27-85-21-21z" data-fill="#36626B" style="transition: all 1.07634s cubic-bezier(0.47, -0.6, 0.52, 1.65) 0s; transform: none;"></path><path fill="#13495E" d="m751 421 19 15-5 70-27-85z" data-fill="#13495E" style="transition: all 1.3071s cubic-bezier(0.47, -0.6, 0.52, 1.65) 0s; transform: none;"></path><path fill="#0F1E21" d="m178 308-14 26v-21z" data-fill="#0F1E21" style="transition: all 1.5679s cubic-bezier(0.47, -0.6, 0.52, 1.65) 0s; transform: none;"></path><path fill="#A8AC93" d="m307 359 72 73-81-36z" data-fill="#A8AC93" style="transition: all 0.266295s cubic-bezier(0.47, -0.6, 0.52, 1.65) 0s; transform: none;"></path><path fill="#9FAB9E" d="m423 335-44 97c115-30 172-46 169-48l-125-49Z" data-fill="#9FAB9E" style="transition: all 1.73945s cubic-bezier(0.47, -0.6, 0.52, 1.65) 0s; transform: none;"></path><path fill="#C2BDA6" d="m423 335-44 97-72-73z" data-fill="#C2BDA6" style="transition: all 0.912301s cubic-bezier(0.47, -0.6, 0.52, 1.65) 0s; transform: none;"></path><path fill="#C0D7DD" d="m430 357-30-73-91 13z" data-fill="#C0D7DD" style="transition: all 0.715299s cubic-bezier(0.47, -0.6, 0.52, 1.65) 0s; transform: none;"></path><path fill="#AAC5BA" d="m309 150 1 147 91-13z" data-fill="#AAC5BA" style="transition: all 1.02988s cubic-bezier(0.47, -0.6, 0.52, 1.65) 0s; transform: none;"></path><path fill="#4A7B80" d="m309 150 72-5 20 139-92-134Z" data-fill="#4A7B80" style="transition: all 1.37118s cubic-bezier(0.47, -0.6, 0.52, 1.65) 0s; transform: none;"></path><path fill="#0D3231" d="m385 76-76 74 72-5 4-69Z" data-fill="#0D3231" style="transition: all 1.34461s cubic-bezier(0.47, -0.6, 0.52, 1.65) 0s; transform: none;"></path></svg>