<svg version="1.1" id="Layer_1" xmlns="http://www.w3.org/2000/svg" xmlns:xlink="http://www.w3.org/1999/xlink" x="0px" y="0px"
	 width="100%" viewBox="0 0 64 64" enable-background="new 0 0 64 64" xml:space="preserve">
<path fill="#000000" opacity="1.000000" stroke="none" 
	d="
M41.000072,65.000000 
	C28.166719,65.000000 15.832651,64.931770 3.500749,65.064606 
	C1.350205,65.087776 0.925212,64.648109 0.936928,62.499710 
	C1.044171,42.833626 1.044158,23.166479 0.936942,3.500397 
	C0.925231,1.352216 1.351888,0.925212 3.500291,0.936928 
	C23.166372,1.044172 42.833519,1.044158 62.499603,0.936942 
	C64.647781,0.925231 65.074776,1.351888 65.063057,3.500290 
	C64.955818,23.166372 64.955833,42.833519 65.063049,62.499603 
	C65.074768,64.647781 64.654961,65.120422 62.498386,65.065987 
	C55.502857,64.889420 48.500080,65.000000 41.000072,65.000000 
z"/>
<path fill="#61D0FC" opacity="1.000000" stroke="none" 
	d="
M14.292870,12.000044 
	C17.239363,12.002984 19.775257,11.717802 22.215948,12.077901 
	C25.682354,12.589333 29.467136,13.239227 27.639505,18.670694 
	C23.149736,16.432928 18.491093,14.800187 13.252028,15.950613 
	C10.135721,16.634911 8.192936,18.200899 8.030587,21.421894 
	C7.837774,25.247309 10.408545,25.553501 13.487480,26.204716 
	C16.014318,26.739161 18.622398,26.683100 21.120445,27.527985 
	C27.366722,29.640585 30.648653,33.180069 29.985920,37.535347 
	C29.191488,42.756096 24.617102,46.662865 18.568113,46.956707 
	C14.982644,47.130875 11.414743,47.059986 7.839496,46.067970 
	C2.767634,44.660686 2.710812,44.865475 3.437864,38.773663 
	C7.901178,41.993923 12.695778,43.437866 18.093767,43.061581 
	C21.883068,42.797432 24.498755,41.225483 24.902441,37.480423 
	C25.317226,33.632389 22.086641,32.730156 19.180521,32.029831 
	C15.580528,31.162292 11.573020,31.193590 8.400162,29.558548 
	C4.912325,27.761192 2.534473,24.147163 3.144309,19.818199 
	C3.691758,15.932086 9.109763,12.255767 14.292870,12.000044 
z"/>
<path fill="#C093FF" opacity="1.000000" stroke="none" 
	d="
M55.918331,16.000032 
	C49.000439,16.002197 49.000362,16.002197 49.000061,22.590660 
	C48.999748,29.407318 48.959564,36.224361 49.025311,43.040382 
	C49.043575,44.934101 48.894596,46.088058 46.432079,46.084141 
	C43.824162,46.079987 43.983395,44.638107 43.989239,42.905067 
	C44.015030,35.257195 43.814941,27.602648 44.084721,19.964224 
	C44.204235,16.580347 43.072651,15.582271 39.910492,15.960863 
	C38.107586,16.176716 36.256310,15.957712 34.428974,16.009981 
	C32.925663,16.052982 31.923088,15.863897 31.958246,13.901959 
	C31.995834,11.804421 33.297665,12.003676 34.620728,12.003088 
	C42.434944,11.999609 50.249176,11.993293 58.063366,12.007504 
	C59.497540,12.010113 61.111248,11.595104 61.037914,14.087174 
	C60.963047,16.631479 59.215576,15.848303 57.889866,15.991008 
	C57.396793,16.044086 56.893250,15.999884 55.918331,16.000032 
z"/>
</svg>